<svg width="81" height="81" viewBox="0 0 81 81" fill="none" xmlns="http://www.w3.org/2000/svg">
<path d="M17.1648 15.4471C16.6212 18.4734 16.15 21.0597 16.1138 21.1796C16.0534 21.4063 17.1165 21.4196 37.2068 21.4196C57.2972 21.4196 58.3603 21.4329 58.2999 21.6463C58.2637 21.7796 58.022 23.1794 57.7442 24.7525C57.4663 26.3256 57.1885 27.8987 57.116 28.2453L56.9952 28.8853L35.8417 28.9119L14.6882 28.9519L13.6976 34.5511C13.1419 37.6307 12.6949 40.1904 12.6949 40.2437C12.6828 40.3104 22.1904 40.3504 33.8121 40.3504H54.9294L53.8058 46.5762C53.1776 50.0157 52.6461 52.9486 52.6098 53.1086C52.5494 53.3752 51.5951 53.7485 44.1291 56.4815C39.5022 58.1612 35.6484 59.5477 35.5639 59.5477C35.431 59.5477 20.8978 53.4685 20.8253 53.3752C20.8132 53.3619 21.0065 52.1887 21.2723 50.7623C21.526 49.3358 21.7434 48.056 21.7434 47.9226C21.7434 47.696 21.5139 47.6827 16.5849 47.7093L11.4264 47.7493L10.1821 54.6017C9.50558 58.3745 8.94986 61.4675 8.97403 61.4808C8.98611 61.4941 14.4829 63.8138 21.1877 66.6401L33.3772 71.7727L47.3426 66.6401C55.026 63.8271 61.3563 61.4675 61.4047 61.4141C61.4772 61.3341 70.7673 10.4211 70.7914 9.98119C70.7914 9.96785 58.9523 9.95452 44.4674 9.95452H18.1554L17.1648 15.4471Z" fill="white"/>
</svg>
