<svg width="80" height="80" viewBox="0 0 80 80" fill="none" xmlns="http://www.w3.org/2000/svg">
<path d="M60 73.3334C61.7682 73.3334 63.4638 72.631 64.7141 71.3808C65.9643 70.1305 66.6667 68.4349 66.6667 66.6667V26.6667L46.6667 6.66675H20C18.2319 6.66675 16.5362 7.36913 15.286 8.61937C14.0358 9.86961 13.3334 11.5653 13.3334 13.3334V66.6667C13.3334 68.4349 14.0358 70.1305 15.286 71.3808C16.5362 72.631 18.2319 73.3334 20 73.3334H60ZM43.3334 13.3334L60 30.0001H43.3334V13.3334ZM23.3334 26.6667H33.3334V33.3334H23.3334V26.6667ZM23.3334 40.0001H56.6667V46.6667H23.3334V40.0001ZM23.3334 53.3334H56.6667V60.0001H23.3334V53.3334Z" fill="black"/>
</svg>
