<svg width="80" height="80" viewBox="0 0 80 80" fill="none" xmlns="http://www.w3.org/2000/svg">
<path d="M51.6035 32.67H56.87C58.8482 32.67 60.7453 31.8842 62.1441 30.4854C63.5429 29.0866 64.3288 27.1895 64.3288 25.2113C64.3288 23.2331 63.5429 21.3359 62.1441 19.9371C60.7453 18.5383 58.8482 17.7525 56.87 17.7525H46.41C43.1981 11.9767 38.7769 6.97568 33.4609 3.08502L56.8725 3.08502L56.8728 3.08502C59.7785 3.08408 62.6558 3.65561 65.3405 4.76697C68.0252 5.87833 70.4647 7.50775 72.5195 9.56213C74.5743 11.6165 76.2043 14.0556 77.3162 16.7401C78.3984 19.3526 78.9693 22.1478 78.9988 24.974L78.9975 24.9766L78.9975 25.2127C78.9985 30.3883 77.1874 35.4009 73.8785 39.3807L73.3465 40.0207L73.8792 40.6601C81.7017 50.049 80.405 63.9891 71.0244 71.8146C67.051 75.1178 62.0449 76.935 56.8725 76.935H33.4604C38.7762 73.044 43.1974 68.043 46.41 62.2675H56.87C58.8498 62.2675 60.7486 61.481 62.1486 60.0811C63.5485 58.6811 64.335 56.7824 64.335 54.8025C64.335 52.8227 63.5485 50.9239 62.1486 49.524C60.7486 48.124 58.8498 47.3375 56.87 47.3375H51.6035C52.3913 42.4801 52.3913 37.5274 51.6035 32.67ZM6.46 3.08252C26.8426 3.08252 43.3725 19.6147 43.3725 40C43.3725 60.3854 26.845 76.9175 6.46 76.9175H1V62.25H6.46C18.7578 62.25 28.7075 52.2843 28.7075 40C28.7075 27.7157 18.7552 17.75 6.46 17.75H1V3.08252H6.46Z" fill="white" stroke="black" stroke-width="2"/>
</svg>
