<svg width="114" height="80" viewBox="0 0 114 80" fill="none" xmlns="http://www.w3.org/2000/svg">
<g clip-path="url(#clip0_183_39)">
<path d="M98.9805 29.7778C101.338 29.4255 103.731 29.3667 106.103 29.6026L106.103 29.605L106.226 29.615L106.227 29.6105C108.233 29.7027 110.086 30.3126 111.669 31.3045L113.601 32.6421L112.201 35.2968L112.201 35.2967L112.196 35.3065C111.406 36.8869 110.308 38.2927 108.965 39.4408C107.624 40.5868 106.068 41.4526 104.388 41.9872L104.3 42.0113L104.3 42.0112L104.288 42.0148C101.968 42.7173 99.5582 43.0741 97.1365 43.0748L97.141 43.0633H96.4032H96.3699L96.3626 43.5471L95.9388 43.3781C91.445 54.6423 83.742 63.8281 73.9667 70.0449L73.7451 70.1785C64.0321 76.0353 52.2979 79.5033 39.7499 79.5033C39.0883 79.5033 38.4333 79.4934 37.775 79.4736L37.7749 79.4766C24.8336 79.4603 15.1429 75.5709 8.61191 67.878C5.38946 63.8755 3.06841 59.225 1.80711 54.2438L1.75586 54.0003L1.75299 53.9867L1.74938 53.9733C0.9175 50.885 0.500681 47.6997 0.509918 44.5014V44.5C0.509918 42.9046 0.611865 41.3297 0.808986 39.7867H78.0199H78.0232L78.5098 39.7933L78.5159 39.7933C81.4444 39.7971 84.3294 39.085 86.9198 37.7189L86.6891 37.2621L87.0154 37.0607C85.3491 34.3618 84.6241 31.1869 84.9538 28.0324C84.9538 28.0322 84.9539 28.0321 84.9539 28.032L84.951 28.0317C85.0982 24.8531 86.0479 21.7641 87.7108 19.0525L87.7134 19.0541L89.2093 16.9608L91.3025 18.4568L91.3091 18.4615L91.3159 18.466C93.1626 19.6973 94.7417 21.2887 95.9586 23.145C97.1747 24.9999 98.004 27.0811 98.397 29.264C98.3973 29.2655 98.3975 29.267 98.3978 29.2685L98.413 29.3629L98.4916 29.8509L98.9805 29.7778ZM51.2033 35.91V26.38H61.9799V35.91H51.2033ZM61.9799 0.5V10.39H51.2033V0.5H61.9799ZM75.9032 26.4V35.93H65.1266V26.4H75.9032ZM48.0599 13.55V23.26H37.2833V13.55H48.0599ZM61.9832 13.55V23.26H51.2033V13.55H61.9832ZM20.2199 26.38V35.91H9.43992V26.38H20.2199ZM34.1433 26.38V35.91H23.3699V26.38H34.1433ZM48.0666 26.38V35.91H37.2833V26.38H48.0666ZM34.1399 13.53V23.24H23.3699V13.53H34.1399Z" fill="white" stroke="black"/>
</g>
<defs>
<clipPath id="clip0_183_39">
<rect width="113.34" height="80" fill="white"/>
</clipPath>
</defs>
</svg>
