<svg version="1.1" id="Layer_1" xmlns="http://www.w3.org/2000/svg" xmlns:xlink="http://www.w3.org/1999/xlink" x="0px" y="0px"
	 width="100%" viewBox="0 0 829 551" enable-background="new 0 0 829 551" xml:space="preserve">
<path fill="#1F242A" opacity="1.000000" stroke="none" 
	d="
M532.000000,552.000000 
	C354.666656,552.000000 177.833328,552.000000 1.000000,552.000000 
	C1.000000,368.333344 1.000000,184.666672 1.000000,1.000000 
	C277.333344,1.000000 553.666687,1.000000 830.000000,1.000000 
	C830.000000,184.666672 830.000000,368.333344 830.000000,552.000000 
	C730.833313,552.000000 631.666687,552.000000 532.000000,552.000000 
M212.500000,352.000305 
	C196.408585,352.000305 180.317154,352.000305 163.748779,352.000305 
	C163.748779,318.357086 163.748779,285.444214 163.748779,252.061890 
	C154.485077,252.061890 145.699493,252.050140 136.914108,252.087173 
	C136.298874,252.089752 135.481430,252.265656 135.101562,252.677689 
	C130.206009,257.987915 125.372932,263.355743 119.505211,269.833801 
	C129.440521,269.833801 137.802734,269.833801 146.478104,269.833801 
	C146.478104,303.237000 146.478104,336.005310 146.478104,369.310120 
	C185.054016,369.310120 223.287979,369.310120 261.594421,369.310120 
	C261.594421,374.217468 261.594421,378.580750 261.594421,383.503693 
	C260.358154,382.510406 259.626678,381.886963 258.859131,381.311584 
	C251.301941,375.646271 241.524872,375.559387 234.251892,381.083740 
	C227.247208,386.404327 224.435730,395.798431 227.422791,403.901947 
	C230.623260,412.584442 238.761154,417.685181 248.254776,417.044464 
	C251.659500,416.814697 253.891022,415.724701 255.310776,412.088318 
	C262.693054,393.180298 270.421722,374.407654 277.999420,355.575623 
	C278.399292,354.581818 278.522095,353.476501 278.874939,352.000305 
	C256.787781,352.000305 235.143890,352.000305 212.500000,352.000305 
M628.513062,294.992676 
	C635.611267,306.248627 642.793762,317.452911 649.740967,328.801300 
	C651.248962,331.264648 652.861572,332.307251 655.712952,332.073151 
	C658.632507,331.833435 661.587097,332.020050 665.317383,332.020050 
	C655.805298,316.851349 646.685852,302.308685 637.476685,287.623077 
	C638.563660,287.221313 639.028748,287.052094 639.491943,286.877838 
	C652.893677,281.836029 660.136292,271.573700 659.201172,258.952026 
	C658.323120,247.102600 648.682373,236.917297 635.015503,234.728226 
	C628.016418,233.607178 620.747925,234.084991 613.599304,234.003189 
	C605.006165,233.904831 596.411011,233.979919 587.788330,233.979919 
	C587.788330,266.987579 587.788330,299.380615 587.788330,331.645813 
	C591.867615,331.645813 595.598206,331.645813 599.759155,331.645813 
	C599.759155,317.188202 599.759155,303.100647 599.759155,288.545715 
	C605.994568,288.545715 611.811951,288.883789 617.570007,288.444550 
	C622.672424,288.055359 626.262268,289.407471 628.513062,294.992676 
M508.500305,277.437225 
	C499.926697,277.437225 491.353058,277.437225 482.399292,277.437225 
	C482.399292,262.471252 482.399292,248.364563 482.399292,234.282928 
	C478.242371,234.282928 474.497223,234.282928 470.698364,234.282928 
	C470.698364,266.984589 470.698364,299.373779 470.698364,331.689941 
	C474.759888,331.689941 478.497620,331.689941 482.669403,331.689941 
	C482.669403,317.272461 482.669403,303.188324 482.669403,288.838013 
	C502.667542,288.838013 522.214600,288.838013 542.338867,288.838013 
	C542.338867,303.292877 542.338867,317.518158 542.338867,331.861450 
	C546.546143,331.861450 550.176086,331.861450 553.969849,331.861450 
	C553.969849,299.246368 553.969849,266.798309 553.969849,234.300568 
	C550.097473,234.300568 546.371643,234.300568 542.058838,234.300568 
	C542.058838,248.832275 542.058838,263.043365 542.058838,277.437317 
	C530.807983,277.437317 520.154175,277.437317 508.500305,277.437225 
M350.966766,276.079865 
	C354.383759,260.332886 364.098267,249.971176 379.184937,245.325165 
	C394.959351,240.467392 409.431641,243.746460 421.831635,255.027649 
	C423.260498,256.327576 424.858337,258.174286 426.522125,258.342773 
	C431.065887,258.802917 435.686829,258.501129 441.339905,258.501129 
	C439.055847,255.540161 437.600891,253.355179 435.854340,251.435455 
	C415.686981,229.268143 381.793335,225.833572 357.369843,243.433884 
	C333.026123,260.976715 329.652008,294.768341 350.122681,316.013947 
	C367.665436,334.220795 395.650665,339.030670 418.221375,327.701782 
	C428.350677,322.617645 436.748291,315.709869 442.290497,304.817993 
	C439.255066,304.817993 436.771729,305.020996 434.333893,304.774323 
	C429.734711,304.308990 426.670105,306.080811 423.083801,309.204712 
	C417.709320,313.886322 411.381897,318.392120 404.683044,320.477020 
	C374.908203,329.743805 346.527832,306.466614 350.966766,276.079865 
M207.522675,245.006683 
	C221.992325,245.006683 236.461960,245.006683 251.171021,245.006683 
	C251.171021,241.229614 251.171021,237.799164 251.171021,234.335480 
	C229.239120,234.335480 207.535217,234.335480 185.906067,234.335480 
	C185.906067,267.052765 185.906067,299.426392 185.906067,331.705994 
	C208.868439,331.705994 231.441071,331.705994 253.987885,331.705994 
	C253.987885,327.995239 253.987885,324.595673 253.987885,320.804504 
	C235.049606,320.804504 216.445038,320.804504 197.782013,320.804504 
	C197.782013,309.444366 197.782013,298.486450 197.782013,286.938721 
	C214.637009,286.938721 231.335297,286.938721 248.030334,286.938721 
	C248.030334,283.060730 248.030334,279.777008 248.030334,276.050293 
	C231.180130,276.050293 214.591721,276.050293 197.613541,276.050293 
	C197.613541,270.648132 197.613525,265.684967 197.613525,260.721802 
	C197.613525,255.612793 197.613541,250.503769 197.613541,245.006683 
	C200.920395,245.006683 203.724365,245.006683 207.522675,245.006683 
M187.484711,379.878143 
	C186.545380,380.560242 185.535690,381.164215 184.677567,381.936554 
	C175.521545,390.177216 175.359589,403.444672 184.285629,411.906189 
	C192.640106,419.825806 206.444885,418.575897 213.828156,409.231323 
	C219.278854,402.332672 219.338593,392.126862 213.969116,385.154663 
	C207.625610,376.917725 198.456604,374.913696 187.484711,379.878143 
M704.897034,267.500031 
	C704.897034,256.418640 704.897034,245.337219 704.897034,234.321915 
	C700.516724,234.321915 696.780579,234.321915 693.155151,234.321915 
	C693.155151,267.007019 693.155151,299.363586 693.155151,331.665161 
	C697.197021,331.665161 700.920532,331.665161 704.897034,331.665161 
	C704.897034,310.383789 704.897034,289.441925 704.897034,267.500031 
M296.497223,293.945251 
	C289.752411,293.945251 283.007599,293.945251 276.361633,293.945251 
	C276.361633,297.999878 276.361633,301.266541 276.361633,304.620178 
	C288.338104,304.620178 300.062531,304.620178 311.771912,304.620178 
	C311.771912,300.934509 311.771912,297.548096 311.771912,293.945251 
	C306.785767,293.945251 302.140869,293.945251 296.497223,293.945251 
z"/>
<path fill="#E7E5E0" opacity="1.000000" stroke="none" 
	d="
M213.000000,352.000305 
	C235.143890,352.000305 256.787781,352.000305 278.874939,352.000305 
	C278.522095,353.476501 278.399292,354.581818 277.999420,355.575623 
	C270.421722,374.407654 262.693054,393.180298 255.310776,412.088318 
	C253.891022,415.724701 251.659500,416.814697 248.254776,417.044464 
	C238.761154,417.685181 230.623260,412.584442 227.422791,403.901947 
	C224.435730,395.798431 227.247208,386.404327 234.251892,381.083740 
	C241.524872,375.559387 251.301941,375.646271 258.859131,381.311584 
	C259.626678,381.886963 260.358154,382.510406 261.594421,383.503693 
	C261.594421,378.580750 261.594421,374.217468 261.594421,369.310120 
	C223.287979,369.310120 185.054016,369.310120 146.478104,369.310120 
	C146.478104,336.005310 146.478104,303.237000 146.478104,269.833801 
	C137.802734,269.833801 129.440521,269.833801 119.505211,269.833801 
	C125.372932,263.355743 130.206009,257.987915 135.101562,252.677689 
	C135.481430,252.265656 136.298874,252.089752 136.914108,252.087173 
	C145.699493,252.050140 154.485077,252.061890 163.748779,252.061890 
	C163.748779,285.444214 163.748779,318.357086 163.748779,352.000305 
	C180.317154,352.000305 196.408585,352.000305 213.000000,352.000305 
z"/>
<path fill="#E4E2DD" opacity="1.000000" stroke="none" 
	d="
M628.298401,294.685699 
	C626.262268,289.407471 622.672424,288.055359 617.570007,288.444550 
	C611.811951,288.883789 605.994568,288.545715 599.759155,288.545715 
	C599.759155,303.100647 599.759155,317.188202 599.759155,331.645813 
	C595.598206,331.645813 591.867615,331.645813 587.788330,331.645813 
	C587.788330,299.380615 587.788330,266.987579 587.788330,233.979919 
	C596.411011,233.979919 605.006165,233.904831 613.599304,234.003189 
	C620.747925,234.084991 628.016418,233.607178 635.015503,234.728226 
	C648.682373,236.917297 658.323120,247.102600 659.201172,258.952026 
	C660.136292,271.573700 652.893677,281.836029 639.491943,286.877838 
	C639.028748,287.052094 638.563660,287.221313 637.476685,287.623077 
	C646.685852,302.308685 655.805298,316.851349 665.317383,332.020050 
	C661.587097,332.020050 658.632507,331.833435 655.712952,332.073151 
	C652.861572,332.307251 651.248962,331.264648 649.740967,328.801300 
	C642.793762,317.452911 635.611267,306.248627 628.298401,294.685699 
M647.058777,258.938141 
	C645.094177,251.152832 639.660278,245.653641 631.894775,245.273911 
	C621.297363,244.755692 610.655518,245.144592 599.962830,245.144592 
	C599.962830,256.024109 599.962830,266.564880 599.962830,277.217072 
	C610.789124,277.217072 621.276062,277.633942 631.713562,277.094727 
	C641.322937,276.598328 647.141235,269.534302 647.058777,258.938141 
z"/>
<path fill="#E0DFDA" opacity="1.000000" stroke="none" 
	d="
M509.000305,277.437256 
	C520.154175,277.437317 530.807983,277.437317 542.058838,277.437317 
	C542.058838,263.043365 542.058838,248.832275 542.058838,234.300568 
	C546.371643,234.300568 550.097473,234.300568 553.969849,234.300568 
	C553.969849,266.798309 553.969849,299.246368 553.969849,331.861450 
	C550.176086,331.861450 546.546143,331.861450 542.338867,331.861450 
	C542.338867,317.518158 542.338867,303.292877 542.338867,288.838013 
	C522.214600,288.838013 502.667542,288.838013 482.669403,288.838013 
	C482.669403,303.188324 482.669403,317.272461 482.669403,331.689941 
	C478.497620,331.689941 474.759888,331.689941 470.698364,331.689941 
	C470.698364,299.373779 470.698364,266.984589 470.698364,234.282928 
	C474.497223,234.282928 478.242371,234.282928 482.399292,234.282928 
	C482.399292,248.364563 482.399292,262.471252 482.399292,277.437225 
	C491.353058,277.437225 499.926697,277.437225 509.000305,277.437256 
z"/>
<path fill="#E7E6E1" opacity="1.000000" stroke="none" 
	d="
M350.916229,276.528015 
	C346.527832,306.466614 374.908203,329.743805 404.683044,320.477020 
	C411.381897,318.392120 417.709320,313.886322 423.083801,309.204712 
	C426.670105,306.080811 429.734711,304.308990 434.333893,304.774323 
	C436.771729,305.020996 439.255066,304.817993 442.290497,304.817993 
	C436.748291,315.709869 428.350677,322.617645 418.221375,327.701782 
	C395.650665,339.030670 367.665436,334.220795 350.122681,316.013947 
	C329.652008,294.768341 333.026123,260.976715 357.369843,243.433884 
	C381.793335,225.833572 415.686981,229.268143 435.854340,251.435455 
	C437.600891,253.355179 439.055847,255.540161 441.339905,258.501129 
	C435.686829,258.501129 431.065887,258.802917 426.522125,258.342773 
	C424.858337,258.174286 423.260498,256.327576 421.831635,255.027649 
	C409.431641,243.746460 394.959351,240.467392 379.184937,245.325165 
	C364.098267,249.971176 354.383759,260.332886 350.916229,276.528015 
z"/>
<path fill="#E9E7E2" opacity="1.000000" stroke="none" 
	d="
M207.025497,245.006683 
	C203.724365,245.006683 200.920395,245.006683 197.613541,245.006683 
	C197.613541,250.503769 197.613525,255.612793 197.613525,260.721802 
	C197.613525,265.684967 197.613541,270.648132 197.613541,276.050293 
	C214.591721,276.050293 231.180130,276.050293 248.030334,276.050293 
	C248.030334,279.777008 248.030334,283.060730 248.030334,286.938721 
	C231.335297,286.938721 214.637009,286.938721 197.782013,286.938721 
	C197.782013,298.486450 197.782013,309.444366 197.782013,320.804504 
	C216.445038,320.804504 235.049606,320.804504 253.987885,320.804504 
	C253.987885,324.595673 253.987885,327.995239 253.987885,331.705994 
	C231.441071,331.705994 208.868439,331.705994 185.906067,331.705994 
	C185.906067,299.426392 185.906067,267.052765 185.906067,234.335480 
	C207.535217,234.335480 229.239120,234.335480 251.171021,234.335480 
	C251.171021,237.799164 251.171021,241.229614 251.171021,245.006683 
	C236.461960,245.006683 221.992325,245.006683 207.025497,245.006683 
z"/>
<path fill="#E8E6E2" opacity="1.000000" stroke="none" 
	d="
M187.808792,379.692932 
	C198.456604,374.913696 207.625610,376.917725 213.969116,385.154663 
	C219.338593,392.126862 219.278854,402.332672 213.828156,409.231323 
	C206.444885,418.575897 192.640106,419.825806 184.285629,411.906189 
	C175.359589,403.444672 175.521545,390.177216 184.677567,381.936554 
	C185.535690,381.164215 186.545380,380.560242 187.808792,379.692932 
z"/>
<path fill="#E9E7E2" opacity="1.000000" stroke="none" 
	d="
M704.897034,268.000061 
	C704.897034,289.441925 704.897034,310.383789 704.897034,331.665161 
	C700.920532,331.665161 697.197021,331.665161 693.155151,331.665161 
	C693.155151,299.363586 693.155151,267.007019 693.155151,234.321915 
	C696.780579,234.321915 700.516724,234.321915 704.897034,234.321915 
	C704.897034,245.337219 704.897034,256.418640 704.897034,268.000061 
z"/>
<path fill="#E8E6E1" opacity="1.000000" stroke="none" 
	d="
M296.996582,293.945251 
	C302.140869,293.945251 306.785767,293.945251 311.771912,293.945251 
	C311.771912,297.548096 311.771912,300.934509 311.771912,304.620178 
	C300.062531,304.620178 288.338104,304.620178 276.361633,304.620178 
	C276.361633,301.266541 276.361633,297.999878 276.361633,293.945251 
	C283.007599,293.945251 289.752411,293.945251 296.996582,293.945251 
z"/>
<path fill="#20252B" opacity="1.000000" stroke="none" 
	d="
M647.093872,259.358124 
	C647.141235,269.534302 641.322937,276.598328 631.713562,277.094727 
	C621.276062,277.633942 610.789124,277.217072 599.962830,277.217072 
	C599.962830,266.564880 599.962830,256.024109 599.962830,245.144592 
	C610.655518,245.144592 621.297363,244.755692 631.894775,245.273911 
	C639.660278,245.653641 645.094177,251.152832 647.093872,259.358124 
z"/>
</svg>