<svg width="80" height="81" viewBox="0 0 80 81" fill="none" xmlns="http://www.w3.org/2000/svg">
<path fill-rule="evenodd" clip-rule="evenodd" d="M28.8901 31.89C27.7594 31.89 26.6398 32.1127 25.5952 32.5454C24.5506 32.978 23.6014 33.6123 22.8019 34.4118C22.0024 35.2113 21.3682 36.1604 20.9355 37.2051C20.5028 38.2497 20.2801 39.3693 20.2801 40.5C20.2801 41.6306 20.5028 42.7502 20.9355 43.7949C21.3682 44.8395 22.0024 45.7886 22.8019 46.5882C23.6014 47.3877 24.5506 48.0219 25.5952 48.4546C26.6398 48.8873 27.7594 49.11 28.8901 49.11H37.5001V40.6733C37.4988 40.5577 37.4988 40.4422 37.5001 40.3266V31.89H28.8901ZM37.5001 26.89H28.8901C26.6062 26.89 24.4157 25.9827 22.8007 24.3677C21.1857 22.7527 20.2784 20.5622 20.2784 18.2783C20.2784 15.9943 21.1857 13.8039 22.8007 12.1889C24.4157 10.5739 26.6062 9.66663 28.8901 9.66663H37.5001V26.89ZM42.5001 9.66663V26.89H51.1101C53.3647 26.8456 55.512 25.9188 57.0908 24.3086C58.6696 22.6985 59.554 20.5333 59.554 18.2783C59.554 16.0232 58.6696 13.8581 57.0908 12.2479C55.512 10.6378 53.3647 9.71099 51.1101 9.66663H42.5001ZM51.1101 31.8866C48.8501 31.8863 46.6805 32.7747 45.0697 34.3599C43.4589 35.9452 42.536 38.1002 42.5001 40.36V40.6366C42.5277 42.3333 43.056 43.984 44.0187 45.3813C44.9814 46.7787 46.3356 47.8605 47.9111 48.4907C49.4866 49.121 51.2132 49.2716 52.874 48.9238C54.5349 48.5759 56.0559 47.745 57.2461 46.5355C58.4362 45.326 59.2425 43.7918 59.5635 42.1255C59.8845 40.4593 59.706 38.7353 59.0504 37.1702C58.3949 35.6051 57.2914 34.2685 55.8787 33.3285C54.466 32.3885 52.807 31.8869 51.1101 31.8866ZM28.8901 54.11C27.1864 54.1093 25.5208 54.6139 24.1039 55.5599C22.687 56.506 21.5825 57.851 20.9301 59.4248C20.2776 60.9986 20.1066 62.7306 20.4385 64.4016C20.7705 66.0727 21.5906 67.6077 22.795 68.8127C23.9995 70.0176 25.5343 70.8383 27.2052 71.1709C28.8761 71.5035 30.6081 71.3331 32.1822 70.6813C33.7563 70.0295 35.1017 68.9255 36.0483 67.5089C36.9949 66.0924 37.5001 64.427 37.5001 62.7233V54.11H28.8901Z" fill="white"/>
</svg>
