<svg width="81" height="81" viewBox="0 0 81 81" fill="none" xmlns="http://www.w3.org/2000/svg">
<path d="M40.6565 8.5C23.1175 8.5 8.89722 22.828 8.89722 40.5C8.89722 55.4947 19.1449 68.0413 32.9602 71.5133C32.812 71.0813 32.7167 70.58 32.7167 69.9587V64.4893C31.4278 64.4893 29.2682 64.4893 28.7256 64.4893C26.5528 64.4893 24.6207 63.548 23.6838 61.7987C22.6437 59.8547 22.4637 56.8813 19.8859 55.0627C19.1211 54.4573 19.7033 53.7667 20.5847 53.86C22.2123 54.324 23.5621 55.4493 24.8325 57.1187C26.0975 58.7907 26.693 59.1693 29.0565 59.1693C30.2024 59.1693 31.9174 59.1027 33.5319 58.8467C34.4 56.6253 35.9006 54.58 37.7347 53.6147C27.1588 52.5187 22.1117 47.2173 22.1117 40.02C22.1117 36.9213 23.4218 33.924 25.6476 31.3987C24.9172 28.892 23.9988 23.78 25.9282 21.8333C30.6868 21.8333 33.5636 24.9427 34.2544 25.7827C36.6258 24.964 39.23 24.5 41.9666 24.5C44.7085 24.5 47.3234 24.964 49.7 25.788C50.3828 24.9533 53.2624 21.8333 58.0316 21.8333C59.9689 23.7827 59.0399 28.916 58.3015 31.4173C60.5141 33.9373 61.8162 36.9267 61.8162 40.02C61.8162 47.212 56.7771 52.5107 46.2171 53.612C49.1231 55.14 51.243 59.4333 51.243 62.668V69.9587C51.243 70.236 51.1821 70.436 51.1504 70.6733C63.5259 66.3027 72.4159 54.4627 72.4159 40.5C72.4159 22.828 58.1956 8.5 40.6565 8.5Z" fill="white"/>
</svg>
