<svg width="81" height="81" viewBox="0 0 81 81" fill="none" xmlns="http://www.w3.org/2000/svg">
<path d="M18.0403 1.95459H21.5104V5.3831H24.6848V1.95459H28.1551V12.337H24.685V8.86033H21.5106V12.337H18.0404L18.0403 1.95459Z" fill="white"/>
<path d="M32.7185 5.39753H29.6635V1.95459H39.2453V5.39753H36.189V12.337H32.7187L32.7185 5.39753Z" fill="white"/>
<path d="M40.766 1.95459H44.3845L46.6103 5.60264L48.8338 1.95459H52.4536V12.337H48.9977V7.19088L46.6103 10.8824H46.5506L44.1615 7.19088V12.337H40.766V1.95459Z" fill="white"/>
<path d="M54.1807 1.95459H57.6519V8.90514H62.5319V12.337H54.1807V1.95459Z" fill="white"/>
<path fill-rule="evenodd" clip-rule="evenodd" d="M12.9653 17.0851L17.9293 72.7618L40.2047 78.9456L62.5416 72.7531L67.5108 17.0851H12.9653ZM31.2021 42.2872H56.0872L55.9206 44.1209L54.2133 63.2518L40.2381 67.125V67.1262L40.2066 67.1349L26.2189 63.2518L25.2622 52.5301H32.117L32.6032 57.9761L40.2081 60.0296L40.2145 60.0279L47.8304 57.9718L48.623 49.1157H24.9571L23.1154 28.4661H57.32L56.7086 35.2947H30.5781L31.2021 42.2872Z" fill="white"/>
</svg>
