<svg width="66" height="65" viewBox="0 0 66 65" fill="none" xmlns="http://www.w3.org/2000/svg">
<path d="M0.890381 0V65H65.8904V0H0.890381ZM35.7118 50.4911C35.7118 56.8184 31.9743 59.903 26.5639 59.903C21.6773 59.903 18.8408 57.3727 17.4015 54.3185L22.3752 51.3079C23.3342 53.0098 24.0626 54.4491 26.1562 54.4491C27.8973 54.4491 29.3279 53.6642 29.3279 50.61V30.1786H35.7118V50.4911ZM50.1264 59.7579C44.4549 59.7579 40.7899 57.1985 39.001 53.6642L43.9819 50.7812C45.2877 52.9199 46.9925 54.3446 50.0031 54.3446C52.5335 54.3446 54.0032 53.2246 54.0032 51.4791C54.0032 49.3855 52.4899 48.6441 49.697 47.4166L48.1706 46.7608C43.7628 44.8863 40.8407 42.53 40.8407 37.5549C40.8407 32.9744 44.3301 29.6287 49.784 29.6287C53.6681 29.6287 56.4581 30.8358 58.4676 34.3702L53.7029 37.433C52.6553 35.557 51.5265 34.8214 49.7768 34.8214C47.9878 34.8214 46.8532 35.956 46.8532 37.433C46.8532 39.2655 47.9878 40.0069 50.6052 41.1415L52.1316 41.7959C57.3243 44.0215 60.2479 46.2936 60.2479 51.395C60.2493 56.8939 55.93 59.7579 50.1264 59.7579Z" fill="white"/>
</svg>
