<svg width="394" height="80" viewBox="0 0 394 80" fill="none" xmlns="http://www.w3.org/2000/svg">
<g clip-path="url(#clip0_183_18)">
<rect width="393.85" height="80" fill="black"/>
<mask id="path-1-inside-1_183_18" fill="white">
<path d="M330.42 0.0330769V12.6946H303.207V79.3077H289.599V12.6954H261.819V0.0330769H330.42ZM333.479 71.7562C334.437 71.7562 335.276 72.1008 335.986 72.7915C336.706 73.4815 337.064 74.3085 337.074 75.2715C337.073 75.9035 336.897 76.5228 336.567 77.0615C336.243 77.5933 335.789 78.034 335.248 78.3423C334.714 78.6617 334.102 78.8283 333.479 78.8238C332.482 78.8238 331.634 78.4785 330.925 77.7885C330.215 77.0977 329.863 76.2615 329.873 75.2715C329.864 74.3085 330.215 73.4815 330.925 72.7915C331.634 72.1008 332.482 71.7562 333.479 71.7562ZM63.7835 79.3077L13.6096 16.9446V79.2754H0.00195312V0H17.0104L80.3996 78.7146L80.4004 12.6954L80.395 0.0330769H148.995V12.6946H94.0073V33.0638H138.229V45.7262H94.0073V66.6462H148.996V79.3077H63.7835ZM192.606 45.6054L201.523 56.6923L183.25 79.4015H165.393L192.606 45.6054ZM183.25 0.0661538L206.274 28.6585L229.224 0.153846L247.032 0.126923L215.189 39.7308L247.083 79.3408H229.224L165.443 0.0661538H183.25ZM356.703 45.4277H362.732V68.6585C362.724 70.7931 362.261 72.6185 361.359 74.1546C360.446 75.6892 359.182 76.8615 357.56 77.6885C355.947 78.5054 354.057 78.9238 351.908 78.9238C349.944 78.9238 348.184 78.57 346.617 77.8792C345.049 77.1885 343.805 76.1531 342.892 74.79C341.969 73.4277 341.517 71.7285 341.517 69.6938H347.557C347.567 70.5838 347.769 71.3554 348.156 72.0015C348.537 72.6392 349.094 73.1532 349.76 73.4815C350.451 73.8277 351.245 74 352.138 74C353.107 74 353.937 73.8 354.61 73.3908C355.282 72.9908 355.799 72.3915 356.159 71.5923C356.509 70.8015 356.693 69.8208 356.703 68.6577V45.4277ZM387.541 54.5123C387.395 53.1046 386.749 52.0046 385.624 51.2238C384.49 50.4331 383.024 50.0431 381.226 50.0431C379.964 50.0431 378.876 50.2338 377.972 50.6062C377.069 50.9877 376.368 51.4962 375.888 52.1415C375.41 52.7862 375.17 53.5223 375.15 54.3492C375.15 55.0392 375.317 55.6392 375.639 56.1385C375.973 56.6619 376.425 57.1006 376.957 57.42C377.536 57.7839 378.155 58.0794 378.802 58.3008C379.484 58.5369 380.167 58.7369 380.848 58.9008L383.992 59.6731C385.256 59.9638 386.482 60.3538 387.653 60.8538C388.823 61.3446 389.883 61.9715 390.814 62.7254C391.746 63.4792 392.484 64.3877 393.027 65.4508C393.571 66.5138 393.848 67.7585 393.848 69.1939C393.848 71.1285 393.35 72.8277 392.345 74.2992C391.34 75.7623 389.893 76.9069 387.994 77.7338C386.104 78.5515 383.817 78.9692 381.125 78.9692C378.525 78.9692 376.257 78.5692 374.348 77.77C372.431 76.98 370.937 75.8162 369.858 74.29C368.78 72.7639 368.199 70.9015 368.116 68.7123H374.091C374.174 69.8569 374.543 70.8108 375.17 71.5831C375.805 72.3462 376.635 72.9092 377.65 73.2908C378.673 73.6638 379.816 73.8546 381.079 73.8546C382.397 73.8546 383.559 73.6546 384.563 73.2638C385.56 72.8731 386.343 72.3285 386.906 71.6192C387.477 70.9192 387.763 70.0931 387.773 69.1485C387.763 68.2854 387.504 67.5677 387.007 67.0038C386.5 66.4408 385.799 65.9685 384.904 65.5869C384.002 65.2054 382.95 64.86 381.752 64.5608L377.935 63.5977C375.178 62.8977 372.994 61.8354 371.398 60.4085C369.794 58.9823 369.001 57.0931 369.001 54.7215C369.001 52.7777 369.536 51.0692 370.615 49.6062C371.684 48.1446 373.15 47.0085 375.004 46.2C376.865 45.3823 378.968 44.9823 381.309 44.9823C383.688 44.9823 385.771 45.3823 387.57 46.2C389.367 47.0085 390.778 48.1346 391.8 49.57C392.824 51.0062 393.36 52.65 393.387 54.5123H387.541Z"/>
</mask>
<path d="M330.42 0.0330769V12.6946H303.207V79.3077H289.599V12.6954H261.819V0.0330769H330.42ZM333.479 71.7562C334.437 71.7562 335.276 72.1008 335.986 72.7915C336.706 73.4815 337.064 74.3085 337.074 75.2715C337.073 75.9035 336.897 76.5228 336.567 77.0615C336.243 77.5933 335.789 78.034 335.248 78.3423C334.714 78.6617 334.102 78.8283 333.479 78.8238C332.482 78.8238 331.634 78.4785 330.925 77.7885C330.215 77.0977 329.863 76.2615 329.873 75.2715C329.864 74.3085 330.215 73.4815 330.925 72.7915C331.634 72.1008 332.482 71.7562 333.479 71.7562ZM63.7835 79.3077L13.6096 16.9446V79.2754H0.00195312V0H17.0104L80.3996 78.7146L80.4004 12.6954L80.395 0.0330769H148.995V12.6946H94.0073V33.0638H138.229V45.7262H94.0073V66.6462H148.996V79.3077H63.7835ZM192.606 45.6054L201.523 56.6923L183.25 79.4015H165.393L192.606 45.6054ZM183.25 0.0661538L206.274 28.6585L229.224 0.153846L247.032 0.126923L215.189 39.7308L247.083 79.3408H229.224L165.443 0.0661538H183.25ZM356.703 45.4277H362.732V68.6585C362.724 70.7931 362.261 72.6185 361.359 74.1546C360.446 75.6892 359.182 76.8615 357.56 77.6885C355.947 78.5054 354.057 78.9238 351.908 78.9238C349.944 78.9238 348.184 78.57 346.617 77.8792C345.049 77.1885 343.805 76.1531 342.892 74.79C341.969 73.4277 341.517 71.7285 341.517 69.6938H347.557C347.567 70.5838 347.769 71.3554 348.156 72.0015C348.537 72.6392 349.094 73.1532 349.76 73.4815C350.451 73.8277 351.245 74 352.138 74C353.107 74 353.937 73.8 354.61 73.3908C355.282 72.9908 355.799 72.3915 356.159 71.5923C356.509 70.8015 356.693 69.8208 356.703 68.6577V45.4277ZM387.541 54.5123C387.395 53.1046 386.749 52.0046 385.624 51.2238C384.49 50.4331 383.024 50.0431 381.226 50.0431C379.964 50.0431 378.876 50.2338 377.972 50.6062C377.069 50.9877 376.368 51.4962 375.888 52.1415C375.41 52.7862 375.17 53.5223 375.15 54.3492C375.15 55.0392 375.317 55.6392 375.639 56.1385C375.973 56.6619 376.425 57.1006 376.957 57.42C377.536 57.7839 378.155 58.0794 378.802 58.3008C379.484 58.5369 380.167 58.7369 380.848 58.9008L383.992 59.6731C385.256 59.9638 386.482 60.3538 387.653 60.8538C388.823 61.3446 389.883 61.9715 390.814 62.7254C391.746 63.4792 392.484 64.3877 393.027 65.4508C393.571 66.5138 393.848 67.7585 393.848 69.1939C393.848 71.1285 393.35 72.8277 392.345 74.2992C391.34 75.7623 389.893 76.9069 387.994 77.7338C386.104 78.5515 383.817 78.9692 381.125 78.9692C378.525 78.9692 376.257 78.5692 374.348 77.77C372.431 76.98 370.937 75.8162 369.858 74.29C368.78 72.7639 368.199 70.9015 368.116 68.7123H374.091C374.174 69.8569 374.543 70.8108 375.17 71.5831C375.805 72.3462 376.635 72.9092 377.65 73.2908C378.673 73.6638 379.816 73.8546 381.079 73.8546C382.397 73.8546 383.559 73.6546 384.563 73.2638C385.56 72.8731 386.343 72.3285 386.906 71.6192C387.477 70.9192 387.763 70.0931 387.773 69.1485C387.763 68.2854 387.504 67.5677 387.007 67.0038C386.5 66.4408 385.799 65.9685 384.904 65.5869C384.002 65.2054 382.95 64.86 381.752 64.5608L377.935 63.5977C375.178 62.8977 372.994 61.8354 371.398 60.4085C369.794 58.9823 369.001 57.0931 369.001 54.7215C369.001 52.7777 369.536 51.0692 370.615 49.6062C371.684 48.1446 373.15 47.0085 375.004 46.2C376.865 45.3823 378.968 44.9823 381.309 44.9823C383.688 44.9823 385.771 45.3823 387.57 46.2C389.367 47.0085 390.778 48.1346 391.8 49.57C392.824 51.0062 393.36 52.65 393.387 54.5123H387.541Z" fill="white" stroke="white" stroke-width="2" mask="url(#path-1-inside-1_183_18)"/>
</g>
<defs>
<clipPath id="clip0_183_18">
<rect width="393.85" height="80" fill="white"/>
</clipPath>
</defs>
</svg>
