<svg width="80" height="80" viewBox="0 0 80 80" fill="none" xmlns="http://www.w3.org/2000/svg">
<g clip-path="url(#clip0_183_37)">
<path d="M53.795 15.4151C53.7183 15.4145 53.6427 15.4339 53.5757 15.4713C53.5057 15.512 53.4475 15.57 53.4064 15.6397C53.3654 15.7094 53.3429 15.7885 53.3413 15.8694V27.7007C53.3399 27.7589 53.3241 27.8158 53.2953 27.8664C53.2665 27.917 53.2256 27.9597 53.1763 27.9907C53.1263 28.0175 53.0705 28.0316 53.0138 28.0316C52.9571 28.0316 52.9012 28.0175 52.8513 27.9907L50.935 26.8826C50.7944 26.802 50.6352 26.7596 50.4732 26.7596C50.3111 26.7596 50.1519 26.802 50.0113 26.8826L42.3438 31.3413C42.2017 31.4213 42.0833 31.5374 42.0005 31.6779C41.9178 31.8184 41.8736 31.9782 41.8725 32.1413V41.0401C41.8725 41.3676 42.0544 41.6782 42.3438 41.8419L50.0125 46.3013C50.153 46.3817 50.312 46.4239 50.4738 46.4239C50.6356 46.4239 50.7946 46.3817 50.935 46.3013L58.6038 41.8419C58.8932 41.6782 59.075 41.3676 59.075 41.0401V18.855C59.075 18.5094 58.8932 18.1988 58.6038 18.0363L54.0288 15.4713C53.9563 15.4346 53.8763 15.4154 53.795 15.4151ZM8.55378 26.5188C8.41003 26.5188 8.26565 26.5726 8.1394 26.6438L0.470652 31.0869C0.326655 31.1691 0.20715 31.2881 0.124434 31.4318C0.041717 31.5755 -0.00122476 31.7386 2.6587e-05 31.9044L0.0187766 43.8426C0.0187766 44.0069 0.107527 44.1713 0.252527 44.2444C0.319695 44.289 0.398498 44.3127 0.479089 44.3127C0.55968 44.3127 0.638483 44.289 0.705652 44.2444L5.26503 41.6238C5.40683 41.5434 5.52487 41.4269 5.60719 41.2862C5.68951 41.1455 5.73318 40.9856 5.73378 40.8226V35.2357C5.73378 34.9082 5.91503 34.5976 6.20503 34.4338L8.1394 33.3057C8.28077 33.2195 8.44384 33.1754 8.6094 33.1788C8.7719 33.1788 8.93565 33.2144 9.06253 33.3057L10.9975 34.4338C11.2869 34.5976 11.4688 34.9082 11.4688 35.2357V40.8232C11.4688 41.1494 11.6488 41.4607 11.9375 41.6232L16.46 44.2444C16.5304 44.2889 16.6118 44.3124 16.695 44.3124C16.7782 44.3124 16.8597 44.2889 16.93 44.2444C17.002 44.2051 17.062 44.1469 17.1035 44.0761C17.145 44.0054 17.1665 43.9246 17.1657 43.8426V31.9044C17.1657 31.5769 16.9844 31.2669 16.6944 31.1026L9.04378 26.6438C8.91513 26.5749 8.77407 26.5322 8.62878 26.5182L8.55378 26.5188ZM71.4725 26.6482V26.6494L71.4713 26.6507C71.3132 26.6507 71.1557 26.6913 71.0107 26.7738L63.3413 31.23C63.0519 31.395 62.8725 31.7044 62.8725 32.0325V40.9325C62.8725 41.26 63.0519 41.5701 63.3413 41.7332L70.9557 46.1013C71.0928 46.1818 71.2491 46.2243 71.4082 46.2243C71.5672 46.2243 71.7235 46.1818 71.8607 46.1013L76.4732 43.5182C76.5449 43.4787 76.6047 43.4204 76.6459 43.3497C76.6872 43.2789 76.7085 43.1982 76.7075 43.1163C76.7082 43.0347 76.6867 42.9544 76.6455 42.884C76.6042 42.8136 76.5447 42.7556 76.4732 42.7163L68.7688 38.2563C68.6983 38.2149 68.6398 38.1561 68.5987 38.0855C68.5577 38.0149 68.5355 37.9349 68.5344 37.8532V35.0688C68.5337 34.9873 68.5552 34.9072 68.5964 34.837C68.6377 34.7668 68.6973 34.7091 68.7688 34.6701L71.1775 33.2869C71.2479 33.2426 71.3294 33.219 71.4125 33.219C71.4957 33.219 71.5772 33.2426 71.6475 33.2869L74.0507 34.6701C74.1206 34.711 74.179 34.7691 74.2202 34.8389C74.2614 34.9086 74.2842 34.9878 74.2863 35.0688V37.2526C74.2863 37.4169 74.3763 37.5807 74.5207 37.6532C74.5911 37.6979 74.6728 37.7216 74.7563 37.7216C74.8397 37.7216 74.9214 37.6979 74.9919 37.6532L79.5488 34.9782C79.6886 34.897 79.8043 34.7802 79.8842 34.6396C79.964 34.4991 80.0051 34.3398 80.0032 34.1782V32.0126C80.0032 31.6851 79.8207 31.3757 79.5488 31.2113L71.9357 26.7732C71.795 26.6919 71.6356 26.6486 71.4732 26.6476L71.4725 26.6482ZM29.5707 26.6788C29.421 26.6791 29.2741 26.7186 29.1444 26.7932L21.5382 31.2101L24.1994 36.0913L29.6607 26.6876C29.631 26.6838 29.6012 26.6811 29.5713 26.6794H29.57L29.5707 26.6788ZM29.9244 26.7713L35.3038 36.03L37.8319 31.3769C37.785 31.3289 37.7326 31.2868 37.6757 31.2513L33.7563 28.9744L29.9832 26.7944C29.9644 26.785 29.9438 26.7788 29.9244 26.7713ZM29.7682 26.8088L24.2844 36.2488L29.7232 46.2269C29.7382 46.2238 29.7532 46.2225 29.7682 46.2182L35.2175 36.1888L29.7675 26.8094L29.7682 26.8088ZM21.4075 31.2913C21.2949 31.3701 21.2032 31.4753 21.1405 31.5976C21.0777 31.7199 21.0458 31.8557 21.0475 31.9932V40.9313C21.0475 41.0738 21.0863 41.2126 21.1525 41.3357L24.1075 36.2463L21.4075 31.2913ZM37.9388 31.5051L35.3944 36.1863L38.0932 40.8326V31.9932C38.0932 31.8182 38.0357 31.6476 37.9382 31.5057L37.9388 31.5051ZM50.4738 33.2957C50.5144 33.2957 50.555 33.3051 50.5925 33.3238L53.2132 34.8538C53.2857 34.89 53.3225 34.9794 53.3225 35.0525V38.1107C53.3225 38.2019 53.285 38.2757 53.2132 38.3119L50.5907 39.84C50.5539 39.8579 50.5137 39.8672 50.4728 39.8672C50.432 39.8672 50.3917 39.8579 50.355 39.84L47.7332 38.3132C47.6607 38.2769 47.6232 38.1851 47.6232 38.1119V35.0538C47.6232 34.9625 47.6613 34.8907 47.7332 34.8538L50.355 33.3238C50.3919 33.3053 50.4326 33.2957 50.4738 33.2957ZM71.4457 34.5332C71.4133 34.5335 71.3817 34.5435 71.355 34.5619L69.8888 35.4175C69.8612 35.4346 69.8385 35.4586 69.8229 35.4871C69.8074 35.5156 69.7995 35.5476 69.8 35.5801V37.2925C69.8 37.365 69.8344 37.4201 69.8888 37.4563L71.355 38.3119C71.3818 38.3296 71.4132 38.3391 71.4453 38.3391C71.4775 38.3391 71.5089 38.3296 71.5357 38.3119L73.0007 37.4557C73.0282 37.4383 73.051 37.4143 73.0667 37.3857C73.0824 37.3572 73.0907 37.3251 73.0907 37.2925V35.5813C73.0909 35.5488 73.0827 35.5167 73.0669 35.4883C73.0512 35.4598 73.0284 35.4359 73.0007 35.4188L71.5357 34.5619C71.509 34.5443 71.4776 34.535 71.4457 34.5351V34.5332ZM35.3088 36.3457L29.9888 46.1363L29.9975 46.1319L37.6769 41.6713C37.8913 41.5501 38.0288 41.3426 38.075 41.1069L35.3088 36.3457ZM24.1944 36.4051L21.2475 41.4782C21.31 41.555 21.3832 41.6219 21.4663 41.6719L29.0625 46.0857L29.1438 46.1325H29.1457C29.2048 46.1661 29.2678 46.1926 29.3332 46.2113C29.3525 46.2176 29.3719 46.2207 29.3907 46.225C29.4282 46.2332 29.4644 46.2388 29.5019 46.2419C29.52 46.2438 29.5375 46.2432 29.5557 46.2432L24.1944 36.4051ZM39.5132 44.7757C39.2463 44.7757 38.98 44.8382 38.7538 44.9657L31.535 49.1719C31.3033 49.3075 31.1112 49.5015 30.9778 49.7346C30.8445 49.9676 30.7745 50.2316 30.775 50.5001V58.8876C30.775 59.4338 31.0644 59.9432 31.5344 60.2169L33.435 61.3082C34.3569 61.7632 34.6819 61.7607 35.0975 61.7607C36.4538 61.7607 37.2325 60.9244 37.2325 59.4869V51.21C37.2319 51.1526 37.2091 51.0977 37.1689 51.0567C37.1288 51.0157 37.0743 50.9918 37.0169 50.99H36.095C36.0369 50.9907 35.9813 51.0141 35.9402 51.0552C35.8991 51.0963 35.8757 51.1519 35.875 51.21V59.4901C35.875 60.1269 35.2088 60.7644 34.1419 60.2188L32.1694 59.0726C32.0969 59.0363 32.0607 58.9432 32.0607 58.8707V50.48C32.0607 50.4075 32.0969 50.3157 32.1694 50.28L39.385 46.095C39.4394 46.0588 39.53 46.0588 39.6038 46.095L46.8188 50.2794C46.8907 50.3169 46.9288 50.3894 46.9288 50.4794V58.8694C46.9288 58.9601 46.8913 59.0351 46.8188 59.0713L39.6019 63.2751C39.5475 63.3113 39.4569 63.3113 39.3832 63.2751L37.54 62.1644C37.485 62.1282 37.4125 62.1107 37.3588 62.1457C36.8525 62.4382 36.7632 62.4757 36.2744 62.6394C36.1657 62.6757 35.985 62.7469 36.3463 62.9469L38.7538 64.3863C38.9888 64.5132 39.2413 64.5851 39.5132 64.5851C39.7844 64.5851 40.0544 64.5132 40.2713 64.4226L47.4875 60.2188C47.7193 60.0826 47.9114 59.888 48.0447 59.6544C48.1779 59.4208 48.2476 59.1564 48.2469 58.8876V50.5001C48.2469 49.9538 47.9575 49.4463 47.4875 49.1732L40.2713 44.9669C40.0389 44.8399 39.778 44.7736 39.5132 44.7757ZM50.78 48.6063C50.4095 48.6078 50.0547 48.7564 49.7937 49.0194C49.5327 49.2824 49.3868 49.6383 49.3882 50.0088C49.3872 50.3791 49.5332 50.7347 49.7942 50.9974C50.0551 51.2602 50.4097 51.4086 50.78 51.41C51.5407 51.41 52.1738 50.7726 52.1738 50.0088C52.172 49.639 52.0248 49.2846 51.7641 49.0224C51.5033 48.7601 51.1499 48.6109 50.78 48.6069V48.6063ZM50.7613 48.8413H50.7632C50.9174 48.8394 51.0706 48.8682 51.2136 48.9261C51.3566 48.984 51.4867 49.0697 51.5963 49.1784C51.7058 49.2871 51.7926 49.4165 51.8516 49.559C51.9107 49.7016 51.9407 49.8545 51.94 50.0088C51.94 50.6463 51.4144 51.19 50.7632 51.19C50.1307 51.19 49.6044 50.6638 49.6044 50.0088C49.6044 49.3538 50.1475 48.8426 50.7613 48.8413ZM50.255 49.2251V50.825H50.5638V50.1919H50.8375C50.9463 50.1919 50.9813 50.2282 51 50.3188C51 50.3376 51.0538 50.7369 51.0538 50.8094H51.3788C51.3413 50.7369 51.3244 50.5169 51.3063 50.3894C51.2888 50.1894 51.2713 50.045 51.0538 50.0269C51.1625 49.99 51.3413 49.9363 51.3413 49.645C51.3413 49.2263 50.9788 49.2263 50.7982 49.2263L50.255 49.2251ZM50.5288 49.48H50.78C50.8713 49.48 51.0169 49.48 51.0169 49.6988C51.0169 49.7713 50.98 49.9175 50.78 49.9175H50.5288V49.48ZM41.4857 50.7363C39.4232 50.7363 38.1907 51.6107 38.1907 53.085C38.1907 54.6688 39.4213 55.1026 41.3932 55.3026C43.7619 55.5401 43.9432 55.8869 43.9432 56.3601C43.9432 57.1788 43.2919 57.5232 41.7725 57.5232C39.855 57.5232 39.4382 57.0501 39.2932 56.0863C39.2932 55.9763 39.2057 55.9051 39.0969 55.9051H38.1563C38.0983 55.9051 38.0426 55.9281 38.0016 55.9691C37.9606 56.0101 37.9375 56.0658 37.9375 56.1238C37.9375 57.3613 38.59 58.8157 41.7563 58.8157C44.0344 58.8157 45.3532 57.9057 45.3532 56.3032C45.3532 54.7388 44.3032 54.3194 42.0794 54.0282C39.8357 53.7369 39.6013 53.5732 39.6013 53.0457C39.6013 52.6088 39.8013 52.0276 41.4638 52.0276C42.9482 52.0276 43.5088 52.3551 43.7263 53.3557C43.7366 53.401 43.7615 53.4417 43.7972 53.4715C43.8329 53.5013 43.8773 53.5186 43.9238 53.5207H44.8825C44.9369 53.5207 44.9932 53.485 45.03 53.4488C45.0639 53.4004 45.0827 53.3429 45.0838 53.2838C44.9394 51.5369 43.8013 50.7363 41.4857 50.7363Z" fill="white"/>
</g>
<defs>
<clipPath id="clip0_183_37">
<rect width="80" height="80" fill="white"/>
</clipPath>
</defs>
</svg>
