<svg width="296" height="238" viewBox="0 0 296 238" fill="none" xmlns="http://www.w3.org/2000/svg">
<path d="M198.326 164.528L203.775 158.956L196.102 160.319C188.303 161.703 180.452 162.536 172.57 162.921L172.568 162.921C163.574 163.366 154.516 163.204 145.527 162.513L145.526 162.513C127.502 161.137 109.629 157.829 92.3328 152.604C83.691 149.993 75.1882 146.87 66.9382 143.239C59.689 140.025 52.6501 136.434 45.8649 132.316L39.1826 128.259L42.271 135.44C54.4375 163.729 80.0229 185.661 112.565 191.696C145.084 197.764 176.819 186.522 198.326 164.528ZM6.53874 89.2589L6.5416 89.2654C14.0589 106.243 30.3581 119.547 45.3793 128.66C64.0275 139.988 85.1241 147.802 106.159 152.887C139.947 161.09 178.064 163.532 212.09 153.783C224.968 150.101 238.478 144.147 248.323 134.236C251.822 130.742 254.921 126.569 257.144 121.812C261.538 112.444 261.779 101.791 258.21 92.1831C253.954 80.7277 245.543 71.6811 236.374 64.5136C232.502 61.4786 228.592 58.8746 224.768 56.5594L218.185 52.5746L221.168 59.6672C223.464 65.1247 225.252 70.7887 226.551 76.6286L226.552 76.6343C226.801 77.8332 227.044 78.9995 227.259 80.1674L227.388 80.8666L227.866 81.3933C228.754 82.3731 229.627 83.3896 230.479 84.4186C235.693 90.8965 240.08 98.6221 238.831 106.183L238.83 106.189C238.003 111.272 234.477 115.843 229.934 119.136C220.108 126.257 207.066 129.445 194.763 131.302C159.958 136.549 122.771 131.042 89.4342 119.808L89.4307 119.807C85.7098 118.559 82.0246 117.155 78.3588 115.699C60.4858 108.511 41.4823 98.7938 30.4048 83.3787C24.8833 75.695 23.2694 66.9814 28.6163 59.6203L28.6203 59.6148C32.3421 54.4617 38.639 50.2349 44.6546 47.2466L45.3023 46.9248L45.6782 46.307C49.3513 40.2695 53.7048 34.6286 58.6739 29.4562L64.0705 23.8389L56.4129 25.2666L56.3998 25.269C55.1472 25.5025 53.8638 25.7418 52.5552 26.0159C40.3133 28.5635 27.5112 32.9966 17.5494 41.516C10.1978 47.7905 4.48031 56.5173 2.99267 66.3375L2.99266 66.3375L2.99168 66.3441C1.82226 74.2052 3.4295 82.1828 6.53874 89.2589ZM50.9578 44.7095L50.952 44.7178L50.9464 44.7262C47.2027 50.2346 44.0208 56.1416 41.4861 62.3113C41.2728 62.8286 41.0448 63.3709 40.808 63.9344C39.4685 67.1206 37.8451 70.9827 36.9877 74.8235C35.9724 79.3721 35.8904 84.466 39.0252 88.7777C42.2072 93.1657 46.7996 96.1893 50.9021 98.6789L50.9031 98.6795C80.2694 116.482 114.288 125.39 148.23 128.708L148.231 128.708C169.149 130.743 190.749 130.763 211.281 125.098L211.285 125.097C214.99 124.068 219.994 122.396 222.558 118.091C223.869 115.892 224.28 113.437 224.564 111.454L224.565 111.452C229.23 78.7053 215.49 43.9903 189.685 23.3327C163.88 2.67545 126.995 -3.13018 96.093 8.61995C79.7317 14.8264 65.4009 25.821 54.7428 39.5537C53.3935 41.2567 52.1506 42.9846 50.9578 44.7095ZM235.46 234.599C250.749 231.054 260.268 215.783 256.723 200.49C253.178 185.198 237.911 175.672 222.621 179.216C207.332 182.76 197.813 198.032 201.358 213.325C204.903 228.617 220.171 238.143 235.46 234.599ZM279.952 174.893C289.125 172.767 294.834 163.605 292.708 154.432C290.581 145.259 281.423 139.544 272.251 141.67C263.079 143.797 257.369 152.958 259.495 162.131C261.622 171.305 270.78 177.019 279.952 174.893Z" fill="black" stroke="white" stroke-width="5"/>
</svg>
