<svg width="80" height="71" viewBox="0 0 80 71" fill="none" xmlns="http://www.w3.org/2000/svg">
<path d="M39.9239 42.5343C43.8088 42.5343 46.9582 39.3849 46.9582 35.5C46.9582 31.6151 43.8088 28.4657 39.9239 28.4657C36.039 28.4657 32.8896 31.6151 32.8896 35.5C32.8896 39.3849 36.039 42.5343 39.9239 42.5343Z" fill="white"/>
<path d="M39.9239 42.5343C43.8088 42.5343 46.9582 39.3849 46.9582 35.5C46.9582 31.6151 43.8088 28.4657 39.9239 28.4657C36.039 28.4657 32.8896 31.6151 32.8896 35.5C32.8896 39.3849 36.039 42.5343 39.9239 42.5343Z" stroke="white" stroke-width="4"/>
<path d="M39.9239 49.9117C60.7698 49.9117 77.6688 43.4594 77.6688 35.5C77.6688 27.5407 60.7698 21.0883 39.9239 21.0883C19.0779 21.0883 2.17896 27.5407 2.17896 35.5C2.17896 43.4594 19.0779 49.9117 39.9239 49.9117Z" stroke="white" stroke-width="4"/>
<path d="M27.443 42.7059C37.866 60.759 51.9033 72.1678 58.7963 68.1881C65.6894 64.2084 62.8278 46.3473 52.4048 28.2942C41.9818 10.2411 27.9444 -1.16773 21.0514 2.81196C14.1584 6.79164 17.02 24.6528 27.443 42.7059Z" stroke="white" stroke-width="4"/>
<path d="M27.443 28.2942C17.02 46.3473 14.1584 64.2084 21.0514 68.1881C27.9444 72.1678 41.9818 60.759 52.4048 42.7059C62.8278 24.6528 65.6894 6.79164 58.7963 2.81195C51.9033 -1.16773 37.866 10.241 27.443 28.2942Z" stroke="white" stroke-width="4"/>
</svg>
