<svg width="107" height="80" viewBox="0 0 107 80" fill="none" xmlns="http://www.w3.org/2000/svg">
<g clip-path="url(#clip0_183_28)">
<path d="M91.7784 45.9867L92.2184 45.98C94.9984 45.98 97.6284 46.6267 99.9617 47.78L99.8584 47.7334C101.934 48.7361 103.707 50.2717 104.995 52.1834L105.025 52.23C106.146 53.8754 106.701 55.8413 106.605 57.83V57.81C106.558 58.7289 106.328 59.6291 105.928 60.458C105.529 61.2868 104.968 62.0275 104.278 62.6367L104.272 62.6434C103.527 63.3741 102.635 63.9368 101.655 64.2934L101.605 64.31C101.049 64.4211 100.744 64.3378 100.688 64.06C100.633 63.7823 100.883 63.4767 101.438 63.1434C102.945 62.23 104.035 60.7567 104.432 59.02L104.442 58.9767C104.528 57.8191 104.298 56.6599 103.775 55.6234L103.792 55.66C103.092 54.1861 102.01 52.9268 100.658 52.0134L100.625 51.9934C98.5361 50.6603 96.1519 49.8602 93.6817 49.6634L93.6283 49.66C90.0907 49.1568 86.4831 49.5759 83.155 50.8767L83.295 50.8267C83.7784 51.9567 84.0817 53.2667 84.125 54.64V54.6567C84.1008 55.9947 83.738 57.3048 83.0707 58.4647C82.4033 59.6247 81.4529 60.5967 80.3083 61.29L80.2717 61.31C79.2383 62.0434 78.0584 62.6867 76.8017 63.1867L76.685 63.2267C75.7735 63.6657 74.7651 63.8654 73.755 63.8067H73.7717C71.6628 63.3645 71.1628 61.5312 72.2717 58.3067C72.755 56.9034 73.4317 55.6867 74.2883 54.6167L74.2684 54.64C75.365 53.2067 76.5683 51.95 77.8983 50.8367L77.935 50.8067L77.6083 50.32C76.961 49.2015 76.4187 48.0253 75.9883 46.8067L75.9417 46.6534C75.6083 45.5423 75.3306 44.4878 75.1083 43.49L74.9417 42.3234L73.275 45.4867C71.8306 48.1534 70.4417 50.4856 69.1083 52.4834L68.6084 53.3167C69.1684 54.6767 69.5817 56.2534 69.7683 57.9L69.775 57.9834C69.8673 59.2687 69.6269 60.5561 69.0769 61.7215C68.5269 62.8869 67.6859 63.8909 66.635 64.6367L66.6117 64.6534C65.6011 65.2703 64.5548 65.8269 63.4783 66.32L63.2783 66.4034C62.0198 66.9417 60.6755 67.2521 59.3083 67.32H59.2784C58.3492 67.3845 57.4191 67.2077 56.5783 66.8067L56.6117 66.82C56.2815 66.5393 56.0536 66.1571 55.9637 65.7331C55.8739 65.3091 55.9271 64.8673 56.115 64.4767L56.1084 64.49C57.4417 62.62 58.755 60.9934 60.1517 59.44L60.1083 59.49L63.775 54.8267L63.1117 53.3267C62.5359 52.2566 62.0498 51.1405 61.6583 49.99L61.6117 49.83C61.2783 48.7189 61.0006 47.6645 60.7783 46.6667L60.6117 45.5L58.945 49.5C57.6139 52.6089 56.3917 55.2745 55.2783 57.4967C53.6183 60.83 52.2295 63.3856 51.1117 65.1634L50.7783 65.6634C49.4472 67.7723 48.1695 68.8267 46.945 68.8267C45.7206 68.8267 44.8906 68.0489 44.455 66.4934C44.1156 65.2474 43.9452 63.9614 43.9483 62.67L43.9517 62.31V62.3267L44.285 59.9934V60.16C43.3961 62.2689 42.5072 64.2123 41.6183 65.99C41.0771 67.0605 40.4495 68.085 39.7417 69.0534L39.785 68.99C39.0984 69.71 38.1317 70.1567 37.0617 70.1567H37.035C36.965 70.1634 36.885 70.1634 36.805 70.1634C35.9956 70.1642 35.2148 69.8635 34.615 69.32L34.6184 69.3234C33.4357 68.1099 32.5842 66.6133 32.145 64.9767L32.1283 64.9067C31.4734 63.0476 31.187 61.0787 31.285 59.11V59.1434C31.5484 56.49 32.0783 54.06 32.855 51.7434L32.785 51.98L26.7884 55.48V55.6467C27.8821 57.9452 28.3413 60.4944 28.1184 63.03L28.1217 62.9767C27.9603 66.2729 26.9085 69.4638 25.0783 72.21L25.1217 72.1434C23.2916 75.0711 20.5959 77.3567 17.4084 78.6834L17.2984 78.7234C15.3822 79.5694 13.3096 80.0032 11.215 79.9967C9.82168 79.9967 8.46835 79.81 7.18835 79.4567L7.29502 79.48C6.26071 79.1366 5.38264 78.4358 4.81835 77.5034L4.80835 77.4834C4.00078 76.3042 3.53579 74.9242 3.46502 73.4967V73.4767C3.25419 71.4536 3.61084 69.4118 4.49502 67.58L4.46502 67.6467C6.33158 64.44 8.98966 61.7659 12.185 59.88L12.285 59.8267C14.6694 58.1875 17.173 56.729 19.775 55.4634L20.1284 55.3067L20.9617 54.8067C19.9617 54.0289 18.1283 52.6956 15.4617 50.8067C12.0987 48.5666 8.89748 46.0927 5.88168 43.4034L5.96502 43.4767C3.10703 41.0282 1.07933 37.7532 0.161684 34.1034L0.135017 33.9767C-0.248506 31.6123 0.171655 29.1876 1.32835 27.09L1.30168 27.1467C3.08669 23.2652 5.68809 19.8145 8.92835 17.03L8.96835 16.9967C12.4363 13.7233 16.3155 10.9153 20.5083 8.64338L20.7983 8.50004C24.8689 6.17877 29.1407 4.22975 33.5617 2.67671L34.1283 2.50338C38.723 0.856342 43.5674 0.0139988 48.4484 0.0133761H48.455C52.7149 -0.12102 56.9431 0.787552 60.7717 2.66004L60.6183 2.59004C63.6183 3.95671 65.865 6.53004 66.765 9.67671L66.785 9.75671C67.5667 12.9277 67.2905 16.2673 65.9983 19.2667L66.035 19.17C64.6795 22.4989 62.6386 25.5051 60.045 27.9934L60.035 28.0034C57.4453 30.571 54.3637 32.5892 50.975 33.9367L50.7917 34C46.955 35.6197 42.8539 36.5224 38.6917 36.6634L38.6284 36.6667C36.0054 36.949 33.3526 36.7111 30.8217 35.9667L30.965 36.0034C29.4244 35.5204 28.0009 34.7224 26.785 33.66L26.7983 33.67C25.9749 33.0016 25.3004 32.1682 24.8184 31.2234L24.7984 31.18C24.465 30.2912 24.4372 29.7634 24.715 29.5967C24.9928 29.43 25.1872 29.4023 25.2984 29.5134L26.1317 30.3467C27.0617 31.21 28.1717 31.89 29.3984 32.3234L29.465 32.3434C31.1517 32.93 33.0984 33.27 35.1217 33.27C35.7717 33.27 36.4117 33.2367 37.0417 33.1667L36.965 33.1734C42.1273 32.583 47.0783 30.7869 51.4183 27.93L51.295 28.0067C54.7812 25.9475 57.6849 23.0335 59.7317 19.54L59.7917 19.4267C60.795 17.9534 61.395 16.1334 61.395 14.1734C61.395 12.97 61.1683 11.8167 60.755 10.7567L60.7783 10.82C60.1606 9.8343 59.3403 8.9911 58.372 8.34632C57.4037 7.70155 56.3094 7.26992 55.1617 7.08004L55.115 7.07338C51.4517 6.20908 47.6466 6.13296 43.9517 6.85004L44.1183 6.82338C38.7941 7.75956 33.6409 9.49115 28.8317 11.96L29.135 11.8167C15.4728 18.7056 8.41835 25.76 7.97168 32.98V33.1434C7.97168 36.0534 9.11502 38.6967 10.9783 40.65L10.975 40.6467C13.0759 42.987 15.4355 45.0815 18.0083 46.89L18.1383 46.9767C20.3827 48.647 22.4976 50.4844 24.465 52.4734L24.4684 52.48L24.8017 52.8134L35.4684 46.9834C36.6526 45.2593 38.1279 43.7546 39.8283 42.5367L39.8817 42.5C41.215 41.38 42.9083 40.65 44.765 40.5034L44.795 40.5C44.8617 40.4934 44.9383 40.4934 45.0183 40.4934C46.2617 40.4934 47.3284 41.2434 47.7884 42.3167L47.795 42.3367C48.2835 43.4461 48.4554 44.669 48.2917 45.87L48.295 45.8367L47.9717 47.48L48.4717 47.1467C48.7674 46.9221 49.1179 46.7811 49.4867 46.7383C49.8556 46.6955 50.2291 46.7525 50.5683 46.9034L50.555 46.8967C50.9276 46.9921 51.2479 47.23 51.4468 47.5592C51.6457 47.8884 51.7073 48.2825 51.6183 48.6567L51.6217 48.6467L51.1217 50.48C50.1217 54.4778 49.4561 57.3656 49.125 59.1434C48.9108 59.9072 48.8274 60.7017 48.8783 61.4934V61.4734C48.9339 62.14 49.0172 62.4734 49.1283 62.4734C49.2395 62.4734 49.4606 62.14 49.7917 61.4734L50.2917 60.3067C50.4028 60.3067 50.4028 60.3623 50.2917 60.4734L52.125 56.64C56.4583 47.0889 58.7906 41.7556 59.1217 40.64L60.1217 37.4767C60.2328 37.2545 60.6772 37.0334 61.455 36.8134C62.3856 36.5683 63.3463 36.456 64.3083 36.48H64.2983C65.8539 36.48 66.6317 36.8689 66.6317 37.6467L66.465 38.48C66.0441 39.6644 65.7 40.8747 65.435 42.1034L65.3983 42.3134C65.2306 43.4422 65.2611 44.5917 65.4883 45.71L65.4783 45.6467L65.645 46.31C65.985 47.7 66.5017 48.92 67.1783 50.0334L67.145 49.9767C68.4761 47.7567 69.7539 45.48 70.9783 43.1467C71.945 41.5367 72.845 39.67 73.5683 37.7167L73.645 37.4834C73.895 36.2267 74.1817 35.1667 74.5317 34.1334L74.4783 34.32C74.5895 33.9867 75.0639 33.7367 75.9017 33.57C76.695 33.41 77.605 33.32 78.535 33.32H78.655H78.6483C80.2039 33.32 81.0339 33.7089 81.1383 34.4867L80.805 35.15C80.4083 36.27 80.0617 37.6167 79.8283 39L79.8083 39.15C79.704 40.2883 79.7646 41.4357 79.9883 42.5567L79.975 42.48V43.1434C80.3584 44.5967 80.9284 45.8734 81.675 47.03L81.6417 46.9767L82.1417 48.1434C85.1079 46.7071 88.3627 45.9661 91.6583 45.9767H91.7883H91.7817L91.7784 45.9867ZM20.315 70.1634C22.7218 67.6821 24.0659 64.3601 24.0617 60.9034C24.0626 59.5503 23.858 58.205 23.455 56.9134L23.4817 57.0067L20.815 58.6734C18.095 60.2234 15.7417 61.9534 13.6117 63.92L13.6384 63.8967C12.0013 65.3981 10.8235 67.333 10.2417 69.4767L10.2217 69.56C9.72168 71.6156 9.97168 72.9489 10.9717 73.56C11.5817 73.84 12.2984 74.0034 13.0484 74.0034C13.8684 74.0034 14.645 73.81 15.3284 73.4634L15.2984 73.4767C17.2079 72.791 18.9209 71.649 20.2883 70.15L20.2984 70.14L20.315 70.1634ZM42.6384 54.8167C43.1939 53.3723 43.805 51.65 44.4717 49.65C45.3606 46.9834 45.6661 45.4289 45.3883 44.9867C45.1106 44.5445 44.5828 44.4889 43.805 44.82C42.9069 45.2512 42.114 45.8735 41.4817 46.6434L41.4717 46.6567C40.7537 47.569 40.1052 48.534 39.5317 49.5434L39.4717 49.6567C38.7665 50.8206 38.2152 52.071 37.8317 53.3767L37.8017 53.49C37.0251 55.6355 36.6863 57.9148 36.805 60.1934V60.1534C36.9161 62.3734 37.2717 63.5678 37.8717 63.7367C38.4717 63.9056 39.1661 63.1 39.955 61.32C40.7183 59.9434 41.3983 58.3434 41.905 56.6667L41.9517 56.4867C42.2828 55.7 42.5095 55.1434 42.6317 54.8167H42.6384ZM61.125 63.65C62.2735 63.142 63.2652 62.336 63.9973 61.3155C64.7293 60.2951 65.1751 59.0974 65.2884 57.8467L65.2917 57.82V57.6534L63.4584 59.9867L60.1283 63.6534C60.1028 63.673 60.082 63.6983 60.0675 63.7271C60.0531 63.756 60.0454 63.7878 60.045 63.82C60.045 63.8867 60.0784 63.9467 60.125 63.9867C60.2317 64.0956 60.565 63.9845 61.125 63.6534V63.65ZM75.455 60.4834C76.7001 60.1336 77.7969 59.387 78.5791 58.357C79.3612 57.327 79.7858 56.07 79.7884 54.7767V54.6467V54.6534C79.755 53.9867 79.635 53.36 79.4383 52.7667L79.4517 52.8167C78.155 53.97 77.0917 55.35 76.3217 56.9067L76.285 56.9834C75.2828 58.9811 75.0028 60.1456 75.445 60.4767L75.455 60.4834Z" fill="white"/>
</g>
<defs>
<clipPath id="clip0_183_28">
<rect width="106.67" height="80" fill="white"/>
</clipPath>
</defs>
</svg>
