<svg width="591" height="535" viewBox="0 0 591 535" fill="none" xmlns="http://www.w3.org/2000/svg">
<mask id="mask0_1516_310" style="mask-type:alpha" maskUnits="userSpaceOnUse" x="0" y="0" width="591" height="535">
<path d="M40.1459 480.973C45.4981 493.661 59.4086 535 142.735 535C179.574 535 244.822 494.112 276.489 469.772C375.217 415.679 351.243 395.807 385.664 356.447C407.191 328.067 418.719 332.083 449.731 315.871C493.847 292.808 564.849 262.574 583.847 212.611C618.424 121.677 520 55.0142 452.122 17.177C400.257 -11.7348 332.393 2.82504 276.489 10.8727C226.377 18.0866 175.803 39.6424 135.2 70.0027C52.6348 131.74 -3.94315 237.778 0.214914 341.74C1.21802 366.82 10.9688 388.659 14.7786 413.044C16.6635 425.109 35.2537 469.375 40.1459 480.973Z" fill="white"/>
</mask>
<g mask="url(#mask0_1516_310)">
<path d="M40.1459 480.973C45.4981 493.661 59.4086 535 142.735 535C179.574 535 244.822 494.112 276.489 469.772C375.217 415.679 351.243 395.807 385.664 356.447C407.191 328.067 418.719 332.083 449.731 315.871C493.847 292.808 564.849 262.574 583.847 212.611C618.424 121.677 520 55.0142 452.122 17.177C400.257 -11.7348 332.393 2.82504 276.489 10.8727C226.377 18.0866 175.803 39.6424 135.2 70.0027C52.6348 131.74 -3.94315 237.778 0.214914 341.74C1.21802 366.82 10.9688 388.659 14.7786 413.044C16.6635 425.109 35.2537 469.375 40.1459 480.973Z" fill="white"/>
<path d="M296.734 245.628C296.734 246.37 296.13 246.972 295.385 246.972C294.64 246.972 294.036 246.37 294.036 245.628C294.036 244.885 294.64 244.283 295.385 244.283C296.13 244.283 296.734 244.885 296.734 245.628Z" fill="black"/>
<path d="M133.199 172.14C133.813 172.561 133.97 173.398 133.548 174.01C133.127 174.623 132.287 174.778 131.673 174.358C131.059 173.938 130.902 173.101 131.324 172.488C131.745 171.876 132.585 171.72 133.199 172.14Z" fill="black"/>
<path d="M280.819 376.839C281.247 377.447 281.1 378.286 280.49 378.712C279.88 379.139 279.039 378.992 278.611 378.384C278.183 377.776 278.33 376.938 278.94 376.511C279.55 376.084 280.391 376.231 280.819 376.839Z" fill="black"/>
<path d="M55.6144 438.84C56.1342 439.727 55.9552 440.951 55.2147 441.574C54.4743 442.197 53.4526 441.983 52.9329 441.095C52.4131 440.208 52.5921 438.983 53.3326 438.361C54.073 437.738 55.0947 437.952 55.6144 438.84Z" fill="black"/>
<path d="M7.05655 525.811C7.5763 526.698 7.39736 527.923 6.65687 528.546C5.91639 529.169 4.89477 528.954 4.37502 528.067C3.85527 527.179 4.03421 525.955 4.77469 525.332C5.51518 524.709 6.5368 524.924 7.05655 525.811Z" fill="black"/>
<path d="M141.813 366.993C142.282 367.793 142.12 368.898 141.452 369.46C140.784 370.022 139.862 369.829 139.393 369.028C138.924 368.227 139.086 367.123 139.754 366.561C140.422 365.999 141.344 366.192 141.813 366.993Z" fill="black"/>
<path d="M391.871 132.999C391.78 132.076 392.388 131.139 393.231 130.906C394.073 130.673 394.83 131.232 394.921 132.155C395.013 133.078 394.404 134.015 393.562 134.248C392.719 134.481 391.962 133.921 391.871 132.999Z" fill="black"/>
<path d="M440.898 227.408C440.543 226.551 440.855 225.478 441.594 225.013C442.333 224.547 443.219 224.865 443.574 225.722C443.929 226.579 443.617 227.652 442.878 228.117C442.139 228.583 441.252 228.265 440.898 227.408Z" fill="black"/>
<path d="M399.931 316.492C399.577 315.635 399.888 314.562 400.627 314.097C401.366 313.631 402.253 313.949 402.607 314.806C402.962 315.663 402.65 316.735 401.911 317.201C401.172 317.666 400.286 317.349 399.931 316.492Z" fill="black"/>
<path d="M281.234 260.005C280.88 259.148 281.191 258.076 281.93 257.61C282.669 257.145 283.556 257.462 283.91 258.319C284.265 259.176 283.953 260.249 283.214 260.714C282.475 261.18 281.589 260.862 281.234 260.005Z" fill="black"/>
<path d="M234.475 154.205C234.12 153.347 234.432 152.275 235.171 151.81C235.91 151.344 236.796 151.662 237.151 152.519C237.506 153.376 237.194 154.448 236.455 154.914C235.716 155.379 234.829 155.062 234.475 154.205Z" fill="black"/>
<path d="M187.715 48.4041C187.361 47.547 187.672 46.4747 188.411 46.0092C189.15 45.5437 190.037 45.8612 190.391 46.7183C190.746 47.5755 190.434 48.6477 189.695 49.1133C188.956 49.5788 188.07 49.2613 187.715 48.4041Z" fill="black"/>
<path d="M294.936 190.934C294.936 191.677 294.332 192.279 293.587 192.279C292.842 192.279 292.238 191.677 292.238 190.934C292.238 190.191 292.842 189.589 293.587 189.589C294.332 189.589 294.936 190.191 294.936 190.934Z" fill="black"/>
<path d="M86.9543 142.672C87.5686 143.092 87.7248 143.93 87.3033 144.542C86.8818 145.154 86.0422 145.31 85.428 144.89C84.8137 144.47 84.6575 143.632 85.079 143.02C85.5005 142.408 86.3401 142.252 86.9543 142.672Z" fill="black"/>
<path d="M247.834 333.103C248.262 333.711 248.114 334.549 247.505 334.976C246.895 335.403 246.054 335.256 245.626 334.648C245.198 334.04 245.345 333.201 245.955 332.775C246.564 332.348 247.406 332.495 247.834 333.103Z" fill="black"/>
<path d="M112.153 265.834C112.514 266.348 112.39 267.056 111.875 267.417C111.36 267.777 110.65 267.653 110.288 267.139C109.927 266.626 110.051 265.918 110.566 265.557C111.081 265.197 111.791 265.321 112.153 265.834Z" fill="black"/>
<path d="M15.5557 375.002C16.0755 375.889 15.8965 377.113 15.156 377.736C14.4156 378.359 13.3939 378.145 12.8742 377.257C12.3544 376.37 12.5334 375.146 13.2739 374.523C14.0144 373.9 15.036 374.114 15.5557 375.002Z" fill="black"/>
<path d="M-33.0022 461.973C-32.4825 462.861 -32.6614 464.085 -33.4019 464.708C-34.1424 465.331 -35.164 465.116 -35.6837 464.229C-36.2035 463.342 -36.0245 462.117 -35.2841 461.494C-34.5436 460.872 -33.522 461.086 -33.0022 461.973Z" fill="black"/>
<path d="M105.668 309.392C106.137 310.193 105.975 311.297 105.307 311.859C104.639 312.421 103.717 312.228 103.248 311.427C102.779 310.627 102.941 309.522 103.609 308.96C104.277 308.398 105.199 308.591 105.668 309.392Z" fill="black"/>
<path d="M400.632 200.381C400.54 199.459 401.149 198.522 401.991 198.289C402.834 198.056 403.59 198.615 403.682 199.538C403.773 200.461 403.164 201.397 402.322 201.63C401.48 201.863 400.723 201.304 400.632 200.381Z" fill="black"/>
<path d="M468.794 289.4C468.44 288.543 468.751 287.471 469.49 287.005C470.229 286.54 471.116 286.857 471.471 287.714C471.825 288.571 471.514 289.644 470.775 290.109C470.036 290.575 469.149 290.257 468.794 289.4Z" fill="black"/>
<path d="M427.828 378.484C427.473 377.627 427.785 376.554 428.524 376.089C429.263 375.623 430.149 375.941 430.504 376.798C430.859 377.655 430.547 378.727 429.808 379.193C429.069 379.658 428.183 379.341 427.828 378.484Z" fill="black"/>
<path d="M309.131 321.997C308.776 321.14 309.088 320.068 309.827 319.602C310.566 319.137 311.452 319.454 311.807 320.311C312.162 321.169 311.85 322.241 311.111 322.706C310.372 323.172 309.485 322.854 309.131 321.997Z" fill="black"/>
<path d="M262.371 216.197C262.017 215.34 262.328 214.267 263.067 213.802C263.806 213.336 264.693 213.654 265.048 214.511C265.402 215.368 265.091 216.44 264.352 216.906C263.613 217.371 262.726 217.054 262.371 216.197Z" fill="black"/>
<path d="M215.612 110.396C215.257 109.539 215.569 108.467 216.308 108.001C217.047 107.536 217.934 107.853 218.288 108.71C218.643 109.568 218.331 110.64 217.592 111.105C216.853 111.571 215.967 111.253 215.612 110.396Z" fill="black"/>
<path d="M270.657 207.073C270.657 207.816 270.053 208.418 269.308 208.418C268.563 208.418 267.959 207.816 267.959 207.073C267.959 206.33 268.563 205.728 269.308 205.728C270.053 205.728 270.657 206.33 270.657 207.073Z" fill="black"/>
<path d="M86.5625 171.765C87.1767 172.185 87.333 173.022 86.9115 173.634C86.49 174.247 85.6503 174.403 85.0361 173.982C84.4219 173.562 84.2657 172.725 84.6872 172.112C85.1087 171.5 85.9483 171.344 86.5625 171.765Z" fill="black"/>
<path d="M237.26 360.221C237.688 360.828 237.541 361.667 236.931 362.094C236.322 362.521 235.48 362.374 235.052 361.766C234.624 361.158 234.772 360.319 235.381 359.892C235.991 359.466 236.832 359.613 237.26 360.221Z" fill="black"/>
<path d="M103.223 288.736C103.585 289.25 103.46 289.958 102.945 290.318C102.431 290.679 101.72 290.555 101.359 290.041C100.997 289.528 101.122 288.819 101.637 288.459C102.152 288.099 102.862 288.223 103.223 288.736Z" fill="black"/>
<path d="M2.715 414.583C3.23476 415.471 3.05581 416.695 2.31533 417.318C1.57485 417.941 0.553228 417.726 0.033477 416.839C-0.486274 415.951 -0.30734 414.727 0.433142 414.104C1.17362 413.481 2.19525 413.696 2.715 414.583Z" fill="black"/>
<path d="M-45.8429 501.555C-45.3231 502.442 -45.5021 503.666 -46.2425 504.289C-46.983 504.912 -48.0046 504.698 -48.5244 503.81C-49.0441 502.923 -48.8652 501.699 -48.1247 501.076C-47.3842 500.453 -46.3626 500.667 -45.8429 501.555Z" fill="black"/>
<path d="M94.0815 345.106C94.5505 345.907 94.389 347.012 93.7209 347.574C93.0527 348.136 92.1309 347.942 91.662 347.142C91.193 346.341 91.3544 345.236 92.0226 344.674C92.6907 344.112 93.6125 344.306 94.0815 345.106Z" fill="black"/>
<path d="M426.099 172.739C426.008 171.816 426.617 170.879 427.459 170.646C428.301 170.413 429.058 170.972 429.15 171.895C429.241 172.818 428.632 173.755 427.79 173.988C426.948 174.221 426.191 173.662 426.099 172.739Z" fill="black"/>
<path d="M485.175 255.603C484.82 254.746 485.132 253.674 485.871 253.208C486.61 252.743 487.496 253.06 487.851 253.918C488.205 254.775 487.894 255.847 487.155 256.313C486.416 256.778 485.529 256.461 485.175 255.603Z" fill="black"/>
<path d="M444.208 344.687C443.854 343.83 444.165 342.758 444.904 342.292C445.643 341.827 446.53 342.144 446.884 343.001C447.239 343.859 446.927 344.931 446.188 345.396C445.449 345.862 444.563 345.544 444.208 344.687Z" fill="black"/>
<path d="M325.511 288.201C325.156 287.343 325.468 286.271 326.207 285.806C326.946 285.34 327.833 285.658 328.187 286.515C328.542 287.372 328.23 288.444 327.491 288.91C326.752 289.375 325.866 289.058 325.511 288.201Z" fill="black"/>
<path d="M278.752 182.4C278.397 181.543 278.709 180.471 279.448 180.005C280.187 179.54 281.073 179.857 281.428 180.714C281.782 181.571 281.471 182.644 280.732 183.109C279.993 183.575 279.106 183.257 278.752 182.4Z" fill="black"/>
<path d="M231.992 76.5996C231.638 75.7425 231.949 74.6702 232.688 74.2047C233.427 73.7392 234.314 74.0567 234.668 74.9138C235.023 75.771 234.711 76.8432 233.972 77.3088C233.233 77.7743 232.347 77.4568 231.992 76.5996Z" fill="black"/>
<path d="M259.866 229.488C259.866 230.231 259.262 230.833 258.517 230.833C257.772 230.833 257.168 230.231 257.168 229.488C257.168 228.746 257.772 228.144 258.517 228.144C259.262 228.144 259.866 228.746 259.866 229.488Z" fill="black"/>
<path d="M98.9927 193.319C99.6069 193.739 99.7631 194.577 99.3416 195.189C98.9201 195.801 98.0805 195.957 97.4663 195.537C96.8521 195.117 96.6958 194.279 97.1173 193.667C97.5388 193.055 98.3785 192.899 98.9927 193.319Z" fill="black"/>
<path d="M241.344 384.749C241.771 385.357 241.624 386.196 241.014 386.622C240.405 387.049 239.563 386.902 239.135 386.294C238.707 385.686 238.855 384.847 239.465 384.421C240.074 383.994 240.916 384.141 241.344 384.749Z" fill="black"/>
<path d="M106.672 309.451C107.033 309.964 106.909 310.673 106.394 311.033C105.879 311.394 105.168 311.27 104.807 310.756C104.446 310.243 104.57 309.534 105.085 309.174C105.6 308.813 106.31 308.938 106.672 309.451Z" fill="black"/>
<path d="M7.67383 450.385C8.19358 451.272 8.01464 452.497 7.27416 453.12C6.53368 453.742 5.51205 453.528 4.9923 452.641C4.47255 451.753 4.65149 450.529 5.39197 449.906C6.13245 449.283 7.15408 449.498 7.67383 450.385Z" fill="black"/>
<path d="M-40.884 537.357C-40.3642 538.244 -40.5432 539.468 -41.2837 540.091C-42.0241 540.714 -43.0458 540.5 -43.5655 539.612C-44.0853 538.725 -43.9063 537.5 -43.1658 536.878C-42.4254 536.255 -41.4037 536.469 -40.884 537.357Z" fill="black"/>
<path d="M98.5559 377.41C99.0248 378.211 98.8634 379.316 98.1952 379.878C97.5271 380.44 96.6053 380.246 96.1363 379.445C95.6673 378.645 95.8288 377.54 96.4969 376.978C97.1651 376.416 98.0869 376.61 98.5559 377.41Z" fill="black"/>
<path d="M435.544 141.518C435.452 140.595 436.061 139.658 436.903 139.425C437.746 139.192 438.503 139.751 438.594 140.674C438.685 141.597 438.077 142.534 437.234 142.767C436.392 143 435.635 142.44 435.544 141.518Z" fill="black"/>
<path d="M485.177 222.993C484.823 222.136 485.134 221.063 485.873 220.598C486.612 220.132 487.499 220.45 487.854 221.307C488.208 222.164 487.897 223.236 487.158 223.702C486.419 224.167 485.532 223.85 485.177 222.993Z" fill="black"/>
<path d="M444.211 312.077C443.856 311.219 444.168 310.147 444.907 309.682C445.646 309.216 446.532 309.534 446.887 310.391C447.242 311.248 446.93 312.32 446.191 312.786C445.452 313.251 444.566 312.934 444.211 312.077Z" fill="black"/>
<path d="M325.514 255.59C325.159 254.733 325.471 253.661 326.21 253.195C326.949 252.73 327.835 253.047 328.19 253.904C328.545 254.761 328.233 255.834 327.494 256.299C326.755 256.765 325.868 256.447 325.514 255.59Z" fill="black"/>
<path d="M278.058 110.618C277.704 109.761 278.015 108.689 278.754 108.223C279.493 107.758 280.38 108.075 280.735 108.932C281.089 109.789 280.778 110.862 280.039 111.327C279.3 111.793 278.413 111.475 278.058 110.618Z" fill="black"/>
<path d="M231.995 43.9891C231.64 43.1319 231.952 42.0597 232.691 41.5941C233.43 41.1286 234.317 41.4461 234.671 42.3033C235.026 43.1604 234.714 44.2327 233.975 44.6982C233.236 45.1637 232.35 44.8462 231.995 43.9891Z" fill="black"/>
<path d="M321.912 219.626C321.912 220.369 321.308 220.971 320.563 220.971C319.819 220.971 319.215 220.369 319.215 219.626C319.215 218.883 319.819 218.281 320.563 218.281C321.308 218.281 321.912 218.883 321.912 219.626Z" fill="black"/>
<path d="M125.944 136.728C126.558 137.148 126.715 137.985 126.293 138.598C125.872 139.21 125.032 139.366 124.418 138.946C123.803 138.526 123.647 137.688 124.069 137.076C124.49 136.464 125.33 136.308 125.944 136.728Z" fill="black"/>
<path d="M286.445 341.133C286.873 341.741 286.726 342.58 286.116 343.007C285.507 343.434 284.665 343.287 284.237 342.679C283.809 342.071 283.957 341.232 284.566 340.805C285.176 340.378 286.017 340.525 286.445 341.133Z" fill="black"/>
<path d="M144.762 272.617C145.123 273.13 144.999 273.838 144.484 274.199C143.969 274.559 143.258 274.435 142.897 273.922C142.535 273.408 142.66 272.7 143.175 272.339C143.69 271.979 144.4 272.103 144.762 272.617Z" fill="black"/>
<path d="M62.4476 386.723C62.9673 387.611 62.7884 388.835 62.0479 389.458C61.3074 390.081 60.2858 389.866 59.7661 388.979C59.2463 388.092 59.4252 386.867 60.1657 386.244C60.9062 385.622 61.9278 385.836 62.4476 386.723Z" fill="black"/>
<path d="M13.8897 473.695C14.4095 474.582 14.2305 475.807 13.49 476.43C12.7496 477.052 11.7279 476.838 11.2082 475.951C10.6884 475.063 10.8674 473.839 11.6079 473.216C12.3483 472.593 13.37 472.808 13.8897 473.695Z" fill="black"/>
<path d="M147.978 319.968C148.447 320.769 148.286 321.874 147.618 322.436C146.949 322.998 146.028 322.804 145.559 322.004C145.09 321.203 145.251 320.098 145.919 319.536C146.587 318.974 147.509 319.168 147.978 319.968Z" fill="black"/>
<path d="M371.083 149.608C370.992 148.685 371.601 147.748 372.443 147.515C373.285 147.283 374.042 147.842 374.134 148.764C374.225 149.687 373.616 150.624 372.774 150.857C371.932 151.09 371.175 150.531 371.083 149.608Z" fill="black"/>
<path d="M428.334 273.148C427.98 272.291 428.291 271.219 429.03 270.753C429.769 270.288 430.656 270.605 431.01 271.462C431.365 272.319 431.053 273.392 430.314 273.857C429.575 274.323 428.689 274.005 428.334 273.148Z" fill="black"/>
<path d="M387.368 362.232C387.013 361.375 387.325 360.302 388.064 359.837C388.803 359.371 389.689 359.689 390.044 360.546C390.398 361.403 390.087 362.475 389.348 362.941C388.609 363.406 387.722 363.089 387.368 362.232Z" fill="black"/>
<path d="M268.671 305.745C268.316 304.888 268.628 303.816 269.367 303.35C270.106 302.885 270.992 303.202 271.347 304.059C271.701 304.916 271.39 305.989 270.651 306.454C269.912 306.92 269.025 306.602 268.671 305.745Z" fill="black"/>
<path d="M153.501 221.519C153.146 220.661 153.458 219.589 154.197 219.124C154.936 218.658 155.823 218.976 156.177 219.833C156.532 220.69 156.22 221.762 155.481 222.228C154.742 222.693 153.856 222.376 153.501 221.519Z" fill="black"/>
<path d="M153.501 221.519C153.146 220.661 153.458 219.589 154.197 219.124C154.936 218.658 155.823 218.976 156.177 219.833C156.532 220.69 156.22 221.762 155.481 222.228C154.742 222.693 153.856 222.376 153.501 221.519Z" fill="black"/>
<path d="M27.139 165.984C26.7844 165.127 27.096 164.054 27.835 163.589C28.574 163.123 29.4605 163.441 29.8152 164.298C30.1698 165.155 29.8582 166.227 29.1192 166.693C28.3802 167.158 27.4936 166.841 27.139 165.984Z" fill="black"/>
<path d="M274.424 415.242C274.07 414.385 274.381 413.313 275.12 412.848C275.859 412.382 276.746 412.7 277.101 413.557C277.455 414.414 277.144 415.486 276.405 415.952C275.666 416.417 274.779 416.1 274.424 415.242Z" fill="black"/>
<path d="M175.152 94.1442C174.797 93.2871 175.109 92.2148 175.848 91.7493C176.587 91.2838 177.473 91.6013 177.828 92.4584C178.183 93.3156 177.871 94.3878 177.132 94.8534C176.393 95.3189 175.506 95.0014 175.152 94.1442Z" fill="black"/>
<path d="M48.7897 38.6094C48.4351 37.7522 48.7467 36.68 49.4857 36.2145C50.2247 35.7489 51.1112 36.0664 51.4659 36.9236C51.8205 37.7807 51.5089 38.853 50.7699 39.3185C50.0309 39.784 49.1443 39.4666 48.7897 38.6094Z" fill="black"/>
<path d="M296.075 287.868C295.721 287.011 296.032 285.939 296.771 285.473C297.51 285.008 298.397 285.325 298.751 286.182C299.106 287.039 298.794 288.112 298.055 288.577C297.316 289.043 296.43 288.725 296.075 287.868Z" fill="black"/>
<path d="M338.997 254.594C338.997 255.336 338.394 255.939 337.649 255.939C336.904 255.939 336.3 255.336 336.3 254.594C336.3 253.851 336.904 253.249 337.649 253.249C338.394 253.249 338.997 253.851 338.997 254.594Z" fill="black"/>
<path d="M212.635 199.059C212.635 199.802 212.032 200.404 211.287 200.404C210.542 200.404 209.938 199.802 209.938 199.059C209.938 198.316 210.542 197.714 211.287 197.714C212.032 197.714 212.635 198.316 212.635 199.059Z" fill="black"/>
<path d="M459.921 448.318C459.921 449.06 459.317 449.662 458.572 449.662C457.827 449.662 457.223 449.06 457.223 448.318C457.223 447.575 457.827 446.973 458.572 446.973C459.317 446.973 459.921 447.575 459.921 448.318Z" fill="black"/>
<path d="M164.527 142.467C165.141 142.888 165.298 143.725 164.876 144.337C164.455 144.95 163.615 145.105 163.001 144.685C162.386 144.265 162.23 143.428 162.652 142.815C163.073 142.203 163.913 142.047 164.527 142.467Z" fill="black"/>
<path d="M38.165 86.9325C38.7792 87.3528 38.9355 88.1899 38.514 88.8024C38.0925 89.4148 37.2528 89.5706 36.6386 89.1503C36.0244 88.73 35.8682 87.8929 36.2897 87.2804C36.7112 86.668 37.5508 86.5122 38.165 86.9325Z" fill="black"/>
<path d="M285.451 336.191C286.065 336.611 286.221 337.449 285.8 338.061C285.378 338.674 284.538 338.829 283.924 338.409C283.31 337.989 283.154 337.152 283.575 336.539C283.997 335.927 284.836 335.771 285.451 336.191Z" fill="black"/>
<path d="M320.577 359.967C321.005 360.575 320.858 361.414 320.248 361.841C319.639 362.268 318.797 362.121 318.369 361.513C317.941 360.905 318.089 360.066 318.698 359.639C319.308 359.212 320.149 359.359 320.577 359.967Z" fill="black"/>
<path d="M194.215 304.432C194.643 305.04 194.496 305.879 193.886 306.306C193.277 306.733 192.435 306.586 192.007 305.978C191.579 305.37 191.727 304.531 192.336 304.104C192.946 303.678 193.787 303.825 194.215 304.432Z" fill="black"/>
<path d="M441.501 553.691C441.929 554.299 441.781 555.138 441.172 555.565C440.562 555.991 439.721 555.844 439.293 555.237C438.865 554.629 439.012 553.79 439.622 553.363C440.232 552.936 441.073 553.083 441.501 553.691Z" fill="black"/>
<path d="M47.2248 232.987C47.5863 233.501 47.4618 234.209 46.9469 234.57C46.432 234.93 45.7215 234.806 45.3601 234.293C44.9987 233.779 45.1231 233.071 45.638 232.71C46.153 232.35 46.8634 232.474 47.2248 232.987Z" fill="black"/>
<path d="M294.51 482.246C294.872 482.76 294.747 483.468 294.232 483.828C293.718 484.189 293.007 484.065 292.646 483.551C292.284 483.038 292.409 482.329 292.924 481.969C293.438 481.609 294.149 481.733 294.51 482.246Z" fill="black"/>
<path d="M103.899 414.214C104.419 415.101 104.24 416.325 103.499 416.948C102.759 417.571 101.737 417.357 101.217 416.469C100.698 415.582 100.877 414.358 101.617 413.735C102.358 413.112 103.379 413.326 103.899 414.214Z" fill="black"/>
<path d="M-22.4632 358.679C-21.9434 359.566 -22.1223 360.79 -22.8628 361.413C-23.6033 362.036 -24.6249 361.822 -25.1447 360.934C-25.6644 360.047 -25.4855 358.823 -24.745 358.2C-24.0045 357.577 -22.9829 357.791 -22.4632 358.679Z" fill="black"/>
<path d="M224.822 607.937C225.342 608.825 225.163 610.049 224.423 610.672C223.682 611.295 222.661 611.08 222.141 610.193C221.621 609.306 221.8 608.081 222.54 607.458C223.281 606.836 224.303 607.05 224.822 607.937Z" fill="black"/>
<path d="M55.341 501.185C55.8608 502.073 55.6818 503.297 54.9414 503.92C54.2009 504.543 53.1793 504.328 52.6595 503.441C52.1398 502.553 52.3187 501.329 53.0592 500.706C53.7997 500.083 54.8213 500.298 55.341 501.185Z" fill="black"/>
<path d="M-71.021 445.65C-70.5013 446.538 -70.6802 447.762 -71.4207 448.385C-72.1612 449.008 -73.1828 448.793 -73.7025 447.906C-74.2223 447.019 -74.0434 445.794 -73.3029 445.171C-72.5624 444.548 -71.5408 444.763 -71.021 445.65Z" fill="black"/>
<path d="M176.264 694.909C176.784 695.796 176.605 697.021 175.865 697.644C175.124 698.266 174.103 698.052 173.583 697.165C173.063 696.277 173.242 695.053 173.983 694.43C174.723 693.807 175.745 694.022 176.264 694.909Z" fill="black"/>
<path d="M185.38 344.773C185.849 345.573 185.687 346.678 185.019 347.24C184.351 347.802 183.429 347.609 182.96 346.808C182.491 346.007 182.653 344.903 183.321 344.341C183.989 343.779 184.911 343.972 185.38 344.773Z" fill="black"/>
<path d="M372.774 101.922C372.683 100.999 373.291 100.062 374.134 99.829C374.976 99.596 375.733 100.155 375.824 101.078C375.916 102.001 375.307 102.938 374.465 103.171C373.622 103.404 372.865 102.844 372.774 101.922Z" fill="black"/>
<path d="M394.69 243.472C394.336 242.615 394.647 241.543 395.386 241.077C396.125 240.612 397.012 240.929 397.366 241.786C397.721 242.643 397.409 243.716 396.67 244.181C395.931 244.647 395.045 244.329 394.69 243.472Z" fill="black"/>
<path d="M353.724 332.556C353.369 331.699 353.681 330.626 354.42 330.161C355.159 329.695 356.045 330.013 356.4 330.87C356.755 331.727 356.443 332.799 355.704 333.265C354.965 333.731 354.078 333.413 353.724 332.556Z" fill="black"/>
<path d="M235.027 276.069C234.672 275.212 234.984 274.14 235.723 273.674C236.462 273.209 237.348 273.526 237.703 274.383C238.058 275.241 237.746 276.313 237.007 276.778C236.268 277.244 235.381 276.926 235.027 276.069Z" fill="black"/>
<path d="M188.267 170.269C187.913 169.412 188.224 168.339 188.963 167.874C189.702 167.408 190.589 167.726 190.944 168.583C191.298 169.44 190.987 170.512 190.248 170.978C189.509 171.443 188.622 171.126 188.267 170.269Z" fill="black"/>
<path d="M141.508 64.4683C141.153 63.6111 141.465 62.5389 142.204 62.0734C142.943 61.6079 143.829 61.9253 144.184 62.7825C144.539 63.6397 144.227 64.7119 143.488 65.1774C142.749 65.643 141.863 65.3255 141.508 64.4683Z" fill="black"/>
<path d="M376.765 273.423C376.765 274.165 376.161 274.767 375.416 274.767C374.671 274.767 374.067 274.165 374.067 273.423C374.067 272.68 374.671 272.078 375.416 272.078C376.161 272.078 376.765 272.68 376.765 273.423Z" fill="black"/>
<path d="M201.467 122.071C202.081 122.492 202.237 123.329 201.816 123.941C201.394 124.554 200.555 124.709 199.94 124.289C199.326 123.869 199.17 123.032 199.591 122.419C200.013 121.807 200.852 121.651 201.467 122.071Z" fill="black"/>
<path d="M362.339 353.744C362.767 354.352 362.619 355.191 362.01 355.617C361.4 356.044 360.559 355.897 360.131 355.289C359.703 354.681 359.85 353.843 360.46 353.416C361.069 352.989 361.911 353.136 362.339 353.744Z" fill="black"/>
<path d="M208.855 283.267C209.217 283.78 209.092 284.488 208.577 284.849C208.063 285.209 207.352 285.085 206.991 284.572C206.629 284.058 206.754 283.35 207.269 282.989C207.784 282.629 208.494 282.753 208.855 283.267Z" fill="black"/>
<path d="M154.616 405.13C155.135 406.017 154.956 407.242 154.216 407.865C153.475 408.487 152.454 408.273 151.934 407.386C151.414 406.498 151.593 405.274 152.334 404.651C153.074 404.028 154.096 404.243 154.616 405.13Z" fill="black"/>
<path d="M106.058 492.102C106.577 492.989 106.398 494.213 105.658 494.836C104.917 495.459 103.896 495.244 103.376 494.357C102.856 493.47 103.035 492.245 103.776 491.623C104.516 491 105.538 491.214 106.058 492.102Z" fill="black"/>
<path d="M231.141 336.577C231.61 337.377 231.449 338.482 230.781 339.044C230.112 339.606 229.191 339.413 228.722 338.612C228.253 337.811 228.414 336.706 229.082 336.144C229.75 335.582 230.672 335.776 231.141 336.577Z" fill="black"/>
<path d="M318.377 95.3164C318.285 94.3936 318.894 93.4567 319.737 93.2237C320.579 92.9908 321.336 93.5499 321.427 94.4727C321.518 95.3954 320.91 96.3323 320.067 96.5653C319.225 96.7983 318.468 96.2391 318.377 95.3164Z" fill="black"/>
<path d="M348.234 245.345C347.88 244.488 348.191 243.415 348.93 242.95C349.669 242.484 350.556 242.802 350.91 243.659C351.265 244.516 350.953 245.588 350.214 246.054C349.475 246.52 348.589 246.202 348.234 245.345Z" fill="black"/>
<path d="M307.268 334.429C306.913 333.572 307.225 332.499 307.964 332.034C308.703 331.568 309.589 331.886 309.944 332.743C310.298 333.6 309.987 334.672 309.248 335.138C308.509 335.603 307.622 335.286 307.268 334.429Z" fill="black"/>
<path d="M188.571 277.942C188.216 277.085 188.528 276.013 189.267 275.547C190.006 275.082 190.892 275.399 191.247 276.256C191.601 277.113 191.29 278.186 190.551 278.651C189.812 279.117 188.925 278.799 188.571 277.942Z" fill="black"/>
<path d="M141.811 172.142C141.457 171.284 141.768 170.212 142.507 169.747C143.246 169.281 144.133 169.599 144.487 170.456C144.842 171.313 144.53 172.385 143.791 172.851C143.052 173.316 142.166 172.999 141.811 172.142Z" fill="black"/>
<path d="M97.0319 58.5687C96.6773 57.7116 96.9889 56.6393 97.7279 56.1738C98.4669 55.7083 99.3535 56.0258 99.7081 56.8829C100.063 57.7401 99.7512 58.8124 99.0122 59.2779C98.2731 59.7434 97.3866 59.4259 97.0319 58.5687Z" fill="black"/>
<path d="M419.024 67.2186C418.576 68.7604 417.608 71.996 417.457 72.4158C416.893 73.9938 416.272 74.6163 414.683 75.2171C414.271 75.3692 409.316 76.8313 409.201 76.8313C409.179 76.8313 409.186 76.8603 409.229 76.8965C409.266 76.9327 410.45 77.2946 411.859 77.7C415.232 78.6699 415.788 78.8943 416.438 79.553C417.059 80.1755 417.334 80.8125 418.15 83.5921C419.14 86.958 419.089 86.806 419.169 86.6033C419.205 86.502 419.537 85.38 419.913 84.106C420.895 80.7474 421.075 80.2986 421.697 79.6182C422.34 78.916 423.019 78.641 426.847 77.5552C428.003 77.2294 428.963 76.9327 428.999 76.911C429.028 76.882 428.053 76.5707 426.832 76.2161C423.047 75.1303 422.441 74.8914 421.762 74.2182C421.112 73.5595 420.837 72.8646 419.66 68.7966C419.371 67.8194 419.132 67.0087 419.118 67.0015C419.104 66.987 419.06 67.0811 419.024 67.2186Z" fill="black"/>
<path d="M325.563 68.7966C325.563 68.8256 325.353 69.5422 325.101 70.3818C324.841 71.2287 324.227 73.3424 323.721 75.0724C323.223 76.8024 322.637 78.7495 322.421 79.401C321.084 83.4256 319.987 84.7068 316.823 85.9518C315.682 86.4006 314.519 86.7553 310.105 88.022C305.215 89.4263 304.471 89.6435 304.5 89.6724C304.543 89.7159 307.584 90.6134 310.849 91.5472C314.526 92.5968 316.317 93.1686 317.444 93.6608C319.813 94.6887 320.94 95.9482 321.995 98.735C322.414 99.8353 322.724 100.827 323.75 104.359C325.101 109.035 325.592 110.621 325.642 110.519C325.707 110.404 326.574 107.508 327.621 103.925C329.348 97.9967 329.933 96.6141 331.276 95.275C332.62 93.9431 334.216 93.2917 340.407 91.54C343.021 90.8016 346.525 89.7665 346.64 89.7014C346.705 89.6652 346.597 89.6073 346.351 89.5349C346.142 89.4697 343.823 88.7966 341.201 88.0438C335.907 86.5092 334.642 86.1038 333.465 85.5392C330.576 84.1494 329.803 82.8755 327.903 76.3753C326.018 69.933 325.563 68.4492 325.563 68.7966Z" fill="black"/>
<path d="M415.651 139.604C415.47 140.212 415.008 141.775 414.632 143.071C413.404 147.277 413.014 148.196 412.032 149.187C411.534 149.694 411.339 149.832 410.689 150.143C410.27 150.346 409.641 150.613 409.28 150.737C408.767 150.917 402.822 152.662 401.573 152.995C401.262 153.082 401.219 153.161 401.464 153.219C401.912 153.313 408.312 155.195 409.042 155.449C410.696 156.006 411.526 156.477 412.227 157.258C412.957 158.062 413.455 159.213 414.264 161.963C415.311 165.503 415.969 167.711 415.998 167.733C416.026 167.769 416.388 166.582 417.543 162.593C418.605 158.952 419.01 158.018 419.963 157.07C420.931 156.1 421.805 155.731 425.836 154.573C428.653 153.762 430.567 153.198 430.653 153.14C430.733 153.096 430.848 153.125 426.832 151.967C425.048 151.453 423.199 150.903 422.73 150.737C420.613 150.005 419.681 149.267 418.93 147.733C418.526 146.915 418.165 145.807 417.262 142.702C416.453 139.915 416.048 138.569 416.005 138.525C415.998 138.511 415.839 139.003 415.651 139.604Z" fill="black"/>
</g>
</svg>
