<svg width="945" height="785" viewBox="0 0 945 785" fill="none" xmlns="http://www.w3.org/2000/svg">
<path d="M368.758 5.74038C409.328 9.53197 435.386 13.3494 474.008 26.2234C504.837 36.5 544.577 40.9749 579.515 46.9641C597.329 50.018 616.355 50.9576 634.394 51.6018C656.5 52.3913 680.484 48.5347 702.284 52.7612C753.271 62.6465 804.894 83.2236 846.052 114.855C899.483 155.917 938.715 211.409 943.057 280.007C946.403 332.874 913.717 394.472 874.78 428.542C815.303 480.584 739.861 483.965 664.023 485.482C618.512 486.392 575.044 493.022 531.463 506.223C492.313 518.081 463.355 537.839 430.98 561.746C402.892 582.488 372.063 600.267 339.386 612.631C310.094 623.715 275.832 623.284 244.958 621.649C200.131 619.276 144.631 613.3 105.313 589.185C72.1895 568.87 46.8968 535.223 24.9264 504.161C8.19987 480.514 -7.56812 452.665 9.081 426.223C18.9904 410.484 32.0981 397.217 41.5447 380.877C54.1389 359.092 64.5147 338.106 74.1372 314.79C100.679 250.477 102.313 178.911 132.623 115.885C144.059 92.1057 161.963 72.3379 181.963 55.3377C204.814 35.9148 235.837 14.5319 265.312 6.8998C297.381 -1.40375 336.299 2.70683 368.758 5.74038Z" fill="white" stroke="white" stroke-width="3" stroke-linecap="round"/>
<path d="M697.284 279.799C697.284 280.628 696.613 281.299 695.784 281.299C694.956 281.299 694.284 280.628 694.284 279.799C694.284 278.971 694.956 278.299 695.784 278.299C696.613 278.299 697.284 278.971 697.284 279.799Z" fill="black"/>
<path d="M515.421 197.838C516.104 198.307 516.278 199.241 515.809 199.924C515.34 200.607 514.407 200.781 513.724 200.312C513.041 199.843 512.867 198.909 513.336 198.226C513.804 197.543 514.738 197.37 515.421 197.838Z" fill="black"/>
<path d="M679.585 426.14C680.061 426.818 679.897 427.754 679.219 428.23C678.541 428.706 677.606 428.542 677.13 427.864C676.654 427.186 676.818 426.25 677.496 425.774C678.174 425.298 679.109 425.462 679.585 426.14Z" fill="black"/>
<path d="M429.141 495.29C429.719 496.28 429.52 497.645 428.697 498.34C427.873 499.034 426.737 498.795 426.159 497.806C425.581 496.816 425.78 495.45 426.603 494.756C427.427 494.061 428.563 494.3 429.141 495.29Z" fill="black"/>
<path d="M375.141 592.29C375.719 593.28 375.52 594.645 374.697 595.34C373.873 596.034 372.737 595.795 372.159 594.806C371.581 593.816 371.78 592.45 372.603 591.756C373.427 591.061 374.563 591.3 375.141 592.29Z" fill="black"/>
<path d="M525 415.159C525.521 416.052 525.342 417.284 524.599 417.91C523.856 418.537 522.831 418.322 522.309 417.428C521.788 416.535 521.967 415.303 522.71 414.677C523.453 414.05 524.478 414.266 525 415.159Z" fill="black"/>
<path d="M803.084 154.183C802.982 153.154 803.659 152.109 804.596 151.849C805.532 151.59 806.374 152.213 806.476 153.242C806.577 154.271 805.9 155.316 804.964 155.576C804.027 155.836 803.185 155.212 803.084 154.183Z" fill="black"/>
<path d="M857.605 259.479C857.211 258.523 857.557 257.327 858.379 256.808C859.201 256.288 860.187 256.642 860.581 257.598C860.975 258.554 860.629 259.75 859.807 260.27C858.985 260.789 857.999 260.435 857.605 259.479Z" fill="black"/>
<path d="M812.047 358.834C811.653 357.878 811.999 356.683 812.821 356.163C813.643 355.644 814.629 355.998 815.023 356.954C815.418 357.91 815.071 359.106 814.249 359.625C813.427 360.145 812.441 359.79 812.047 358.834Z" fill="black"/>
<path d="M680.047 295.834C679.653 294.878 679.999 293.683 680.821 293.163C681.643 292.644 682.629 292.998 683.023 293.954C683.418 294.91 683.071 296.106 682.249 296.625C681.427 297.145 680.441 296.79 680.047 295.834Z" fill="black"/>
<path d="M628.047 177.834C627.653 176.878 627.999 175.683 628.821 175.163C629.643 174.644 630.629 174.998 631.023 175.954C631.418 176.91 631.071 178.106 630.249 178.625C629.427 179.145 628.441 178.79 628.047 177.834Z" fill="black"/>
<path d="M576.047 59.8344C575.653 58.8784 575.999 57.6825 576.821 57.1633C577.643 56.6441 578.629 56.9982 579.023 57.9542C579.418 58.9102 579.071 60.1061 578.249 60.6253C577.427 61.1445 576.441 60.7904 576.047 59.8344Z" fill="black"/>
<path d="M695.284 218.799C695.284 219.628 694.613 220.299 693.784 220.299C692.956 220.299 692.284 219.628 692.284 218.799C692.284 217.971 692.956 217.299 693.784 217.299C694.613 217.299 695.284 217.971 695.284 218.799Z" fill="black"/>
<path d="M463.993 164.972C464.676 165.441 464.85 166.375 464.381 167.058C463.913 167.741 462.979 167.914 462.296 167.446C461.613 166.977 461.439 166.043 461.908 165.36C462.377 164.677 463.31 164.503 463.993 164.972Z" fill="black"/>
<path d="M642.903 377.361C643.379 378.039 643.215 378.974 642.537 379.45C641.859 379.926 640.924 379.762 640.448 379.084C639.972 378.406 640.136 377.471 640.814 376.995C641.492 376.519 642.427 376.683 642.903 377.361Z" fill="black"/>
<path d="M492.016 302.336C492.418 302.909 492.28 303.699 491.707 304.101C491.134 304.503 490.344 304.364 489.942 303.792C489.54 303.219 489.679 302.429 490.251 302.027C490.824 301.625 491.614 301.763 492.016 302.336Z" fill="black"/>
<path d="M384.593 424.091C385.171 425.081 384.972 426.446 384.148 427.141C383.325 427.836 382.189 427.597 381.611 426.607C381.033 425.617 381.232 424.252 382.055 423.557C382.879 422.862 384.015 423.101 384.593 424.091Z" fill="black"/>
<path d="M330.593 521.091C331.171 522.081 330.972 523.446 330.148 524.141C329.325 524.836 328.189 524.597 327.611 523.607C327.033 522.617 327.232 521.252 328.055 520.557C328.879 519.862 330.015 520.101 330.593 521.091Z" fill="black"/>
<path d="M484.804 350.916C485.325 351.809 485.146 353.041 484.403 353.668C483.66 354.295 482.635 354.079 482.113 353.186C481.592 352.293 481.771 351.061 482.514 350.434C483.257 349.807 484.282 350.023 484.804 350.916Z" fill="black"/>
<path d="M812.826 229.336C812.724 228.307 813.401 227.262 814.338 227.002C815.275 226.742 816.116 227.366 816.218 228.395C816.32 229.424 815.643 230.469 814.706 230.729C813.769 230.989 812.928 230.365 812.826 229.336Z" fill="black"/>
<path d="M888.628 328.619C888.234 327.663 888.58 326.467 889.402 325.948C890.224 325.429 891.21 325.783 891.604 326.739C891.999 327.695 891.652 328.891 890.83 329.41C890.008 329.929 889.023 329.575 888.628 328.619Z" fill="black"/>
<path d="M843.07 427.975C842.676 427.019 843.022 425.823 843.844 425.304C844.666 424.784 845.652 425.138 846.046 426.094C846.441 427.05 846.094 428.246 845.272 428.766C844.451 429.285 843.465 428.931 843.07 427.975Z" fill="black"/>
<path d="M711.07 364.975C710.676 364.019 711.022 362.823 711.844 362.304C712.666 361.784 713.652 362.138 714.046 363.094C714.441 364.05 714.094 365.246 713.272 365.766C712.451 366.285 711.465 365.931 711.07 364.975Z" fill="black"/>
<path d="M659.07 246.975C658.676 246.019 659.022 244.823 659.844 244.304C660.666 243.784 661.652 244.138 662.046 245.094C662.441 246.05 662.094 247.246 661.272 247.766C660.451 248.285 659.465 247.931 659.07 246.975Z" fill="black"/>
<path d="M607.07 128.975C606.676 128.019 607.022 126.823 607.844 126.304C608.666 125.784 609.652 126.138 610.046 127.094C610.441 128.05 610.094 129.246 609.272 129.766C608.451 130.285 607.465 129.931 607.07 128.975Z" fill="black"/>
<path d="M668.284 236.799C668.284 237.628 667.613 238.299 666.784 238.299C665.956 238.299 665.284 237.628 665.284 236.799C665.284 235.971 665.956 235.299 666.784 235.299C667.613 235.299 668.284 235.971 668.284 236.799Z" fill="black"/>
<path d="M463.558 197.419C464.241 197.888 464.414 198.822 463.946 199.505C463.477 200.188 462.543 200.361 461.86 199.893C461.177 199.424 461.003 198.49 461.472 197.807C461.941 197.124 462.875 196.95 463.558 197.419Z" fill="black"/>
<path d="M631.145 407.605C631.621 408.284 631.457 409.219 630.779 409.695C630.101 410.171 629.165 410.007 628.689 409.329C628.213 408.651 628.377 407.715 629.055 407.24C629.733 406.764 630.669 406.927 631.145 407.605Z" fill="black"/>
<path d="M482.086 327.878C482.488 328.451 482.349 329.241 481.777 329.643C481.204 330.045 480.414 329.907 480.012 329.334C479.61 328.761 479.748 327.971 480.321 327.569C480.894 327.167 481.684 327.306 482.086 327.878Z" fill="black"/>
<path d="M370.313 468.237C370.891 469.226 370.692 470.592 369.868 471.286C369.045 471.981 367.909 471.742 367.331 470.752C366.753 469.763 366.952 468.397 367.775 467.702C368.599 467.008 369.735 467.247 370.313 468.237Z" fill="black"/>
<path d="M316.313 565.237C316.891 566.226 316.692 567.592 315.868 568.286C315.045 568.981 313.909 568.742 313.331 567.752C312.753 566.763 312.952 565.397 313.775 564.702C314.599 564.008 315.735 564.247 316.313 565.237Z" fill="black"/>
<path d="M471.919 390.748C472.441 391.641 472.261 392.874 471.518 393.5C470.775 394.127 469.75 393.911 469.229 393.018C468.707 392.125 468.887 390.893 469.63 390.266C470.373 389.64 471.398 389.855 471.919 390.748Z" fill="black"/>
<path d="M841.148 198.506C841.047 197.477 841.724 196.432 842.66 196.172C843.597 195.912 844.439 196.536 844.54 197.565C844.642 198.594 843.965 199.639 843.028 199.899C842.091 200.159 841.25 199.535 841.148 198.506Z" fill="black"/>
<path d="M906.844 290.925C906.45 289.969 906.796 288.773 907.618 288.254C908.44 287.735 909.426 288.089 909.82 289.045C910.215 290.001 909.868 291.197 909.046 291.716C908.225 292.235 907.239 291.881 906.844 290.925Z" fill="black"/>
<path d="M861.286 390.281C860.892 389.325 861.239 388.129 862.06 387.61C862.882 387.091 863.868 387.445 864.262 388.401C864.657 389.357 864.31 390.553 863.489 391.072C862.667 391.591 861.681 391.237 861.286 390.281Z" fill="black"/>
<path d="M729.286 327.281C728.892 326.325 729.239 325.129 730.06 324.61C730.882 324.091 731.868 324.445 732.262 325.401C732.657 326.357 732.31 327.553 731.488 328.072C730.667 328.591 729.681 328.237 729.286 327.281Z" fill="black"/>
<path d="M677.286 209.281C676.892 208.325 677.239 207.129 678.06 206.61C678.882 206.091 679.868 206.445 680.262 207.401C680.657 208.357 680.31 209.553 679.488 210.072C678.667 210.591 677.681 210.237 677.286 209.281Z" fill="black"/>
<path d="M625.286 91.2811C624.892 90.3251 625.238 89.1292 626.06 88.61C626.882 88.0908 627.868 88.4449 628.262 89.4009C628.657 90.3569 628.31 91.5528 627.488 92.072C626.667 92.5912 625.681 92.2371 625.286 91.2811Z" fill="black"/>
<path d="M656.284 261.799C656.284 262.628 655.613 263.299 654.784 263.299C653.956 263.299 653.284 262.628 653.284 261.799C653.284 260.971 653.956 260.299 654.784 260.299C655.613 260.299 656.284 260.971 656.284 261.799Z" fill="black"/>
<path d="M477.381 221.459C478.064 221.928 478.238 222.862 477.769 223.545C477.3 224.228 476.366 224.401 475.683 223.933C475 223.464 474.827 222.53 475.295 221.847C475.764 221.164 476.698 220.99 477.381 221.459Z" fill="black"/>
<path d="M635.686 434.962C636.162 435.64 635.998 436.576 635.32 437.052C634.642 437.528 633.706 437.364 633.23 436.686C632.754 436.008 632.918 435.072 633.596 434.596C634.274 434.12 635.21 434.284 635.686 434.962Z" fill="black"/>
<path d="M485.921 350.982C486.322 351.554 486.184 352.345 485.611 352.746C485.039 353.148 484.249 353.01 483.847 352.437C483.445 351.865 483.583 351.075 484.156 350.673C484.728 350.271 485.519 350.409 485.921 350.982Z" fill="black"/>
<path d="M375.827 508.167C376.405 509.156 376.206 510.522 375.383 511.216C374.56 511.911 373.423 511.672 372.845 510.682C372.267 509.693 372.466 508.327 373.29 507.632C374.113 506.938 375.249 507.177 375.827 508.167Z" fill="black"/>
<path d="M321.827 605.167C322.405 606.156 322.207 607.522 321.383 608.216C320.56 608.911 319.423 608.672 318.845 607.682C318.267 606.693 318.466 605.327 319.29 604.632C320.113 603.938 321.249 604.177 321.827 605.167Z" fill="black"/>
<path d="M476.895 426.777C477.417 427.67 477.237 428.902 476.494 429.529C475.751 430.156 474.726 429.94 474.204 429.047C473.683 428.154 473.862 426.922 474.605 426.295C475.348 425.668 476.374 425.884 476.895 426.777Z" fill="black"/>
<path d="M851.651 163.685C851.549 162.655 852.226 161.61 853.163 161.351C854.1 161.091 854.941 161.714 855.043 162.744C855.145 163.773 854.468 164.818 853.531 165.077C852.594 165.337 851.752 164.714 851.651 163.685Z" fill="black"/>
<path d="M906.847 254.554C906.453 253.598 906.799 252.403 907.621 251.883C908.443 251.364 909.429 251.718 909.823 252.674C910.218 253.63 909.871 254.826 909.049 255.345C908.228 255.865 907.242 255.51 906.847 254.554Z" fill="black"/>
<path d="M861.289 353.91C860.895 352.954 861.242 351.758 862.063 351.239C862.885 350.72 863.871 351.074 864.266 352.03C864.66 352.986 864.313 354.182 863.492 354.701C862.67 355.22 861.684 354.866 861.289 353.91Z" fill="black"/>
<path d="M729.289 290.91C728.895 289.954 729.242 288.758 730.063 288.239C730.885 287.72 731.871 288.074 732.266 289.03C732.66 289.986 732.313 291.182 731.492 291.701C730.67 292.22 729.684 291.866 729.289 290.91Z" fill="black"/>
<path d="M677.289 172.91C676.895 171.954 677.242 170.758 678.063 170.239C678.885 169.72 679.871 170.074 680.266 171.03C680.66 171.986 680.313 173.182 679.492 173.701C678.67 174.22 677.684 173.866 677.289 172.91Z" fill="black"/>
<path d="M625.289 54.9103C624.895 53.9543 625.242 52.7584 626.063 52.2392C626.885 51.72 627.871 52.0741 628.266 53.0301C628.66 53.9861 628.313 55.182 627.492 55.7012C626.67 56.2204 625.684 55.8663 625.289 54.9103Z" fill="black"/>
<path d="M725.284 250.799C725.284 251.628 724.613 252.299 723.784 252.299C722.956 252.299 722.284 251.628 722.284 250.799C722.284 249.971 722.956 249.299 723.784 249.299C724.613 249.299 725.284 249.971 725.284 250.799Z" fill="black"/>
<path d="M507.353 158.343C508.036 158.811 508.21 159.745 507.741 160.428C507.272 161.111 506.338 161.285 505.655 160.816C504.972 160.348 504.799 159.414 505.267 158.731C505.736 158.048 506.67 157.874 507.353 158.343Z" fill="black"/>
<path d="M685.842 386.317C686.318 386.995 686.155 387.931 685.476 388.407C684.798 388.883 683.863 388.719 683.387 388.041C682.911 387.363 683.075 386.427 683.753 385.951C684.431 385.476 685.366 385.639 685.842 386.317Z" fill="black"/>
<path d="M528.279 309.9C528.681 310.473 528.543 311.263 527.97 311.665C527.398 312.067 526.607 311.928 526.206 311.356C525.804 310.783 525.942 309.993 526.515 309.591C527.087 309.189 527.877 309.327 528.279 309.9Z" fill="black"/>
<path d="M436.74 437.164C437.318 438.154 437.119 439.52 436.296 440.214C435.472 440.909 434.336 440.67 433.758 439.68C433.18 438.69 433.379 437.325 434.202 436.63C435.026 435.936 436.162 436.175 436.74 437.164Z" fill="black"/>
<path d="M382.74 534.164C383.318 535.154 383.119 536.52 382.296 537.214C381.472 537.909 380.336 537.67 379.758 536.68C379.18 535.69 379.379 534.325 380.202 533.63C381.026 532.936 382.162 533.175 382.74 534.164Z" fill="black"/>
<path d="M531.856 362.712C532.378 363.605 532.198 364.837 531.455 365.464C530.712 366.091 529.687 365.875 529.166 364.982C528.644 364.089 528.824 362.857 529.567 362.23C530.31 361.603 531.335 361.819 531.856 362.712Z" fill="black"/>
<path d="M774.98 198.992C774.878 197.963 775.555 196.918 776.492 196.658C777.429 196.398 778.27 197.022 778.372 198.051C778.473 199.08 777.796 200.125 776.86 200.385C775.923 200.645 775.081 200.021 774.98 198.992Z" fill="black"/>
<path d="M843.633 310.493C843.239 309.537 843.586 308.341 844.407 307.822C845.229 307.303 846.215 307.657 846.61 308.613C847.004 309.569 846.657 310.765 845.836 311.284C845.014 311.803 844.028 311.449 843.633 310.493Z" fill="black"/>
<path d="M798.076 409.849C797.681 408.893 798.028 407.697 798.85 407.178C799.671 406.658 800.657 407.013 801.052 407.969C801.446 408.925 801.1 410.12 800.278 410.64C799.456 411.159 798.47 410.805 798.076 409.849Z" fill="black"/>
<path d="M666.076 346.849C665.681 345.893 666.028 344.697 666.85 344.178C667.671 343.658 668.657 344.013 669.052 344.969C669.446 345.925 669.1 347.12 668.278 347.64C667.456 348.159 666.47 347.805 666.076 346.849Z" fill="black"/>
<path d="M537.998 252.91C537.604 251.954 537.95 250.758 538.772 250.239C539.594 249.72 540.58 250.074 540.974 251.03C541.369 251.986 541.022 253.182 540.2 253.701C539.379 254.22 538.393 253.866 537.998 252.91Z" fill="black"/>
<path d="M537.998 252.91C537.604 251.954 537.95 250.758 538.772 250.239C539.594 249.72 540.58 250.074 540.974 251.03C541.369 251.986 541.022 253.182 540.2 253.701C539.379 254.22 538.393 253.866 537.998 252.91Z" fill="black"/>
<path d="M397.474 190.972C397.08 190.016 397.426 188.82 398.248 188.301C399.07 187.782 400.056 188.136 400.45 189.092C400.845 190.048 400.498 191.244 399.676 191.763C398.854 192.282 397.869 191.928 397.474 190.972Z" fill="black"/>
<path d="M672.474 468.972C672.08 468.016 672.426 466.82 673.248 466.301C674.07 465.782 675.056 466.136 675.45 467.092C675.845 468.048 675.498 469.244 674.676 469.763C673.854 470.282 672.869 469.928 672.474 468.972Z" fill="black"/>
<path d="M562.076 110.849C561.681 109.893 562.028 108.697 562.849 108.178C563.671 107.658 564.657 108.012 565.052 108.968C565.446 109.924 565.099 111.12 564.278 111.64C563.456 112.159 562.47 111.805 562.076 110.849Z" fill="black"/>
<path d="M421.551 48.9103C421.157 47.9543 421.504 46.7584 422.325 46.2392C423.147 45.72 424.133 46.0741 424.527 47.0301C424.922 47.9861 424.575 49.182 423.754 49.7012C422.932 50.2204 421.946 49.8663 421.551 48.9103Z" fill="black"/>
<path d="M696.551 326.91C696.157 325.954 696.504 324.758 697.325 324.239C698.147 323.72 699.133 324.074 699.528 325.03C699.922 325.986 699.575 327.182 698.754 327.701C697.932 328.22 696.946 327.866 696.551 326.91Z" fill="black"/>
<path d="M744.284 289.799C744.284 290.628 743.613 291.299 742.784 291.299C741.956 291.299 741.284 290.628 741.284 289.799C741.284 288.971 741.956 288.299 742.784 288.299C743.613 288.299 744.284 288.971 744.284 289.799Z" fill="black"/>
<path d="M603.76 227.861C603.76 228.689 603.089 229.361 602.26 229.361C601.432 229.361 600.76 228.689 600.76 227.861C600.76 227.032 601.432 226.361 602.26 226.361C603.089 226.361 603.76 227.032 603.76 227.861Z" fill="black"/>
<path d="M878.76 505.861C878.76 506.689 878.089 507.361 877.26 507.361C876.432 507.361 875.76 506.689 875.76 505.861C875.76 505.032 876.432 504.361 877.26 504.361C878.089 504.361 878.76 505.032 878.76 505.861Z" fill="black"/>
<path d="M550.26 164.744C550.943 165.213 551.117 166.146 550.648 166.829C550.179 167.512 549.246 167.686 548.563 167.217C547.88 166.749 547.706 165.815 548.175 165.132C548.643 164.449 549.577 164.275 550.26 164.744Z" fill="black"/>
<path d="M409.736 102.805C410.419 103.274 410.593 104.208 410.124 104.891C409.655 105.574 408.722 105.748 408.038 105.279C407.355 104.81 407.182 103.876 407.65 103.193C408.119 102.51 409.053 102.337 409.736 102.805Z" fill="black"/>
<path d="M684.736 380.805C685.419 381.274 685.593 382.208 685.124 382.891C684.655 383.574 683.722 383.748 683.039 383.279C682.356 382.81 682.182 381.876 682.651 381.193C683.119 380.51 684.053 380.337 684.736 380.805Z" fill="black"/>
<path d="M723.8 407.323C724.276 408.001 724.112 408.937 723.434 409.413C722.756 409.889 721.82 409.725 721.344 409.047C720.868 408.369 721.032 407.433 721.71 406.957C722.388 406.481 723.324 406.645 723.8 407.323Z" fill="black"/>
<path d="M583.276 345.385C583.752 346.063 583.588 346.998 582.91 347.474C582.232 347.95 581.296 347.786 580.82 347.108C580.344 346.43 580.508 345.495 581.186 345.019C581.864 344.543 582.8 344.707 583.276 345.385Z" fill="black"/>
<path d="M858.276 623.385C858.752 624.063 858.588 624.998 857.91 625.474C857.232 625.95 856.296 625.786 855.82 625.108C855.344 624.43 855.508 623.495 856.186 623.019C856.864 622.543 857.8 622.707 858.276 623.385Z" fill="black"/>
<path d="M419.811 265.702C420.213 266.274 420.075 267.064 419.502 267.466C418.929 267.868 418.139 267.73 417.737 267.157C417.335 266.584 417.474 265.794 418.046 265.392C418.619 264.99 419.409 265.129 419.811 265.702Z" fill="black"/>
<path d="M694.811 543.702C695.213 544.274 695.075 545.064 694.502 545.466C693.929 545.868 693.139 545.73 692.737 545.157C692.336 544.584 692.474 543.794 693.047 543.392C693.619 542.99 694.409 543.129 694.811 543.702Z" fill="black"/>
<path d="M482.837 467.824C483.415 468.814 483.216 470.18 482.392 470.874C481.569 471.569 480.433 471.33 479.855 470.34C479.277 469.35 479.476 467.985 480.299 467.29C481.123 466.595 482.259 466.835 482.837 467.824Z" fill="black"/>
<path d="M342.313 405.886C342.891 406.876 342.692 408.241 341.868 408.936C341.045 409.63 339.909 409.391 339.331 408.402C338.753 407.412 338.952 406.046 339.775 405.352C340.599 404.657 341.735 404.896 342.313 405.886Z" fill="black"/>
<path d="M617.313 683.886C617.891 684.876 617.692 686.241 616.868 686.936C616.045 687.63 614.909 687.391 614.331 686.402C613.753 685.412 613.952 684.046 614.775 683.352C615.599 682.657 616.735 682.896 617.313 683.886Z" fill="black"/>
<path d="M428.837 564.824C429.415 565.814 429.216 567.18 428.392 567.874C427.569 568.569 426.433 568.33 425.855 567.34C425.277 566.35 425.476 564.985 426.299 564.29C427.123 563.595 428.259 563.835 428.837 564.824Z" fill="black"/>
<path d="M288.313 502.886C288.891 503.876 288.692 505.241 287.868 505.936C287.045 506.63 285.909 506.391 285.331 505.402C284.753 504.412 284.952 503.046 285.775 502.352C286.599 501.657 287.735 501.896 288.313 502.886Z" fill="black"/>
<path d="M563.313 780.886C563.891 781.876 563.692 783.241 562.868 783.936C562.045 784.63 560.909 784.391 560.331 783.402C559.753 782.412 559.952 781.046 560.775 780.352C561.599 779.657 562.735 779.896 563.313 780.886Z" fill="black"/>
<path d="M573.45 390.376C573.971 391.27 573.792 392.502 573.049 393.128C572.306 393.755 571.28 393.539 570.759 392.646C570.237 391.753 570.417 390.521 571.16 389.895C571.903 389.268 572.928 389.483 573.45 390.376Z" fill="black"/>
<path d="M748.713 156.502C748.611 155.473 749.288 154.428 750.225 154.168C751.162 153.909 752.004 154.532 752.105 155.561C752.207 156.59 751.53 157.635 750.593 157.895C749.656 158.155 748.815 157.531 748.713 156.502Z" fill="black"/>
<path d="M806.219 277.395C805.824 276.439 806.171 275.243 806.993 274.724C807.815 274.205 808.801 274.559 809.195 275.515C809.589 276.471 809.243 277.667 808.421 278.186C807.599 278.705 806.613 278.351 806.219 277.395Z" fill="black"/>
<path d="M760.661 376.751C760.267 375.795 760.613 374.599 761.435 374.08C762.257 373.561 763.243 373.915 763.637 374.871C764.031 375.827 763.685 377.023 762.863 377.542C762.041 378.061 761.055 377.707 760.661 376.751Z" fill="black"/>
<path d="M628.661 313.751C628.267 312.795 628.613 311.599 629.435 311.08C630.257 310.561 631.243 310.915 631.637 311.871C632.031 312.827 631.685 314.023 630.863 314.542C630.041 315.061 629.055 314.707 628.661 313.751Z" fill="black"/>
<path d="M576.661 195.751C576.267 194.795 576.613 193.599 577.435 193.08C578.257 192.561 579.243 192.915 579.637 193.871C580.031 194.827 579.685 196.023 578.863 196.542C578.041 197.061 577.055 196.707 576.661 195.751Z" fill="black"/>
<path d="M524.661 77.7509C524.267 76.7949 524.613 75.599 525.435 75.0798C526.257 74.5606 527.243 74.9147 527.637 75.8707C528.031 76.8267 527.685 78.0226 526.863 78.5418C526.041 79.061 525.055 78.7069 524.661 77.7509Z" fill="black"/>
<path d="M786.284 310.799C786.284 311.628 785.613 312.299 784.784 312.299C783.956 312.299 783.284 311.628 783.284 310.799C783.284 309.971 783.956 309.299 784.784 309.299C785.613 309.299 786.284 309.971 786.284 310.799Z" fill="black"/>
<path d="M591.34 141.996C592.023 142.465 592.196 143.398 591.728 144.081C591.259 144.765 590.325 144.938 589.642 144.47C588.959 144.001 588.785 143.067 589.254 142.384C589.723 141.701 590.657 141.527 591.34 141.996Z" fill="black"/>
<path d="M770.241 400.382C770.717 401.06 770.553 401.996 769.875 402.472C769.197 402.948 768.262 402.784 767.786 402.106C767.31 401.428 767.474 400.492 768.152 400.016C768.83 399.54 769.765 399.704 770.241 400.382Z" fill="black"/>
<path d="M599.556 321.778C599.958 322.351 599.82 323.141 599.247 323.543C598.675 323.945 597.885 323.806 597.483 323.234C597.081 322.661 597.219 321.871 597.792 321.469C598.364 321.067 599.155 321.205 599.556 321.778Z" fill="black"/>
<path d="M539.238 457.693C539.816 458.683 539.617 460.048 538.793 460.743C537.97 461.438 536.834 461.199 536.256 460.209C535.678 459.219 535.877 457.854 536.7 457.159C537.524 456.464 538.66 456.704 539.238 457.693Z" fill="black"/>
<path d="M485.238 554.693C485.816 555.683 485.617 557.048 484.793 557.743C483.97 558.438 482.834 558.199 482.256 557.209C481.678 556.219 481.877 554.854 482.7 554.159C483.524 553.464 484.66 553.704 485.238 554.693Z" fill="black"/>
<path d="M624.34 381.235C624.861 382.128 624.682 383.36 623.939 383.987C623.196 384.614 622.171 384.398 621.649 383.505C621.128 382.612 621.307 381.38 622.05 380.753C622.793 380.126 623.818 380.342 624.34 381.235Z" fill="black"/>
<path d="M698.647 143.588C698.545 142.559 699.222 141.514 700.159 141.254C701.096 140.994 701.938 141.618 702.039 142.647C702.141 143.676 701.464 144.721 700.527 144.981C699.59 145.241 698.749 144.617 698.647 143.588Z" fill="black"/>
<path d="M754.556 279.484C754.162 278.528 754.508 277.332 755.33 276.813C756.152 276.294 757.138 276.648 757.532 277.604C757.927 278.56 757.58 279.756 756.758 280.275C755.937 280.794 754.951 280.44 754.556 279.484Z" fill="black"/>
<path d="M708.998 378.84C708.604 377.884 708.95 376.688 709.772 376.169C710.594 375.649 711.58 376.003 711.974 376.959C712.369 377.915 712.022 379.111 711.2 379.631C710.379 380.15 709.393 379.796 708.998 378.84Z" fill="black"/>
<path d="M576.998 315.84C576.604 314.884 576.95 313.688 577.772 313.169C578.594 312.649 579.58 313.003 579.974 313.959C580.369 314.915 580.022 316.111 579.2 316.631C578.379 317.15 577.393 316.796 576.998 315.84Z" fill="black"/>
<path d="M524.998 197.84C524.604 196.884 524.95 195.688 525.772 195.169C526.594 194.649 527.58 195.003 527.974 195.959C528.369 196.915 528.022 198.111 527.2 198.631C526.379 199.15 525.393 198.796 524.998 197.84Z" fill="black"/>
<path d="M475.2 71.1711C474.806 70.2151 475.153 69.0192 475.974 68.5C476.796 67.9808 477.782 68.3349 478.176 69.2909C478.571 70.2469 478.224 71.4428 477.403 71.962C476.581 72.4812 475.595 72.1271 475.2 71.1711Z" fill="black"/>
</svg>
