<svg width="104" height="103" viewBox="0 0 104 103" fill="none" xmlns="http://www.w3.org/2000/svg">
<g clip-path="url(#clip0_177_838)">
<g clip-path="url(#clip1_177_838)">
<mask id="mask0_177_838" style="mask-type:luminance" maskUnits="userSpaceOnUse" x="7" y="26" width="97" height="58">
<path d="M7.31299 26H103.563V83.75H7.31299V26Z" fill="white"/>
</mask>
<g mask="url(#mask0_177_838)">
<path fill-rule="evenodd" clip-rule="evenodd" d="M50.438 26C38.938 26 31.7505 31.75 28.8755 43.25C33.188 37.5 38.2192 35.3438 43.9692 36.7813C47.2499 37.6006 49.5947 39.9821 52.1901 42.6159C56.418 46.9076 61.3119 51.875 72.0005 51.875C83.5005 51.875 90.688 46.125 93.563 34.625C89.2505 40.375 84.2192 42.5313 78.4692 41.0938C75.1885 40.2744 72.8438 37.8929 70.2483 35.2591C66.0205 30.9674 61.1266 26 50.438 26ZM28.8755 51.875C17.3755 51.875 10.188 57.625 7.31299 69.125C11.6255 63.375 16.6567 61.2188 22.4067 62.6563C25.6874 63.4772 28.0322 65.8571 30.6276 68.4909C34.8555 72.7826 39.7494 77.75 50.438 77.75C61.938 77.75 69.1255 72 72.0005 60.5C67.688 66.25 62.6567 68.4063 56.9067 66.9688C53.626 66.1494 51.2813 63.7679 48.6858 61.1341C44.458 56.8424 39.5641 51.875 28.8755 51.875Z" fill="white"/>
</g>
</g>
</g>
<defs>
<clipPath id="clip0_177_838">
<rect width="103" height="103" fill="white" transform="translate(0.312988)"/>
</clipPath>
<clipPath id="clip1_177_838">
<rect width="96.25" height="58.8194" fill="white" transform="translate(7.31299 26)"/>
</clipPath>
</defs>
</svg>
