<svg width="79" height="79" viewBox="0 0 79 79" fill="none" xmlns="http://www.w3.org/2000/svg">
<path d="M0.25 39.9437V79.0062H78.375V0.881226H0.25V39.9437ZM63.2063 36.8187C65.0774 37.253 66.7781 38.2316 68.0938 39.6312C68.818 40.3853 69.4477 41.2248 69.9688 42.1312C69.9688 42.2312 66.5938 44.5125 64.5375 45.7875C64.4625 45.8375 64.1625 45.5125 63.8313 45.0187C63.4559 44.371 62.9225 43.829 62.281 43.4432C61.6394 43.0574 60.9106 42.8404 60.1625 42.8125C57.7938 42.65 56.2688 43.8937 56.2813 45.9375C56.2617 46.4463 56.3782 46.9512 56.6188 47.4C57.1375 48.4812 58.1063 49.125 61.1438 50.4375C66.7375 52.8437 69.1312 54.4312 70.6187 56.6875C72.2812 59.1875 72.65 63.225 71.525 66.2125C70.275 69.4625 67.2125 71.6687 62.8812 72.4C60.903 72.6266 58.9043 72.6056 56.9313 72.3375C53.9201 71.849 51.1424 70.4153 49 68.2437C48.2813 67.45 46.8812 65.3812 46.9688 65.2312C47.1969 65.0619 47.4371 64.9094 47.6875 64.775L50.5625 63.125L52.8062 61.825L53.275 62.5187C54.0661 63.6503 55.0728 64.6146 56.2375 65.3562C58.7375 66.6687 62.15 66.4875 63.8375 64.9687C64.4041 64.4122 64.7575 63.6746 64.8363 62.8843C64.9151 62.094 64.7143 61.3012 64.2688 60.6437C63.6438 59.775 62.3937 59.0437 58.9 57.5187C54.8687 55.7812 53.1312 54.7062 51.5437 52.9937C50.5527 51.8637 49.821 50.5304 49.4 49.0875C49.086 47.439 49.0395 45.7507 49.2625 44.0875C50.0937 40.1937 53.0125 37.475 57.275 36.6687C59.249 36.4245 61.2486 36.4793 63.2063 36.8312V36.8187ZM44.8687 40.0937V43.2937H34.725V72.1875H27.5313V43.2875H17.3625V40.1625C17.3352 39.0867 17.3644 38.0102 17.45 36.9375C17.4875 36.8875 23.7 36.8625 31.2 36.875H44.8313L44.8687 40.0937Z" fill="white"/>
</svg>
