<svg width="81" height="81" viewBox="0 0 81 81" fill="none" xmlns="http://www.w3.org/2000/svg">
<path d="M40.9639 18.7574L45.3946 12.45L56.3988 12.4469L40.6094 38.992L24.6717 12.4438L35.6826 12.4499L40.1466 18.7588L40.5562 19.3378L40.9639 18.7574Z" fill="white" stroke="white"/>
<path d="M49.2 10.1H49.2013H56.6309L46.2453 27.5667L46.2435 27.5697L40.6253 37.069L34.921 27.5619L34.9208 27.5616L24.4498 10.1H31.8413H31.8417C32.1352 10.0999 32.4244 10.1703 32.685 10.3052L33.366 8.9901L32.685 10.3052C32.9457 10.4402 33.1701 10.6358 33.3395 10.8755L39.3092 19.3317L40.5375 21.0717L41.762 19.3289L47.6985 10.8791C47.6985 10.8791 47.6986 10.879 47.6986 10.8789C47.8679 10.6381 48.0927 10.4416 48.354 10.306C48.6154 10.1704 48.9055 10.0997 49.2 10.1Z" fill="black" stroke="white" stroke-width="3"/>
<path d="M39.3485 40.7718L40.644 42.931L41.9258 40.7636L48.824 29.1L48.8258 29.097L60.1109 10.1173L73.8703 10.1267C74.1927 10.1269 74.5094 10.2122 74.7884 10.3739C75.0673 10.5355 75.2987 10.7679 75.4592 11.0476C75.6196 11.3273 75.7035 11.6443 75.7023 11.9667C75.7012 12.2891 75.615 12.6055 75.4525 12.884L75.452 12.8849L42.1853 69.9782L42.1852 69.9783C42.024 70.2551 41.7932 70.4847 41.5156 70.6445C41.238 70.8042 40.9235 70.8885 40.6032 70.8889C40.283 70.8892 39.9682 70.8057 39.6903 70.6466C39.4123 70.4875 39.1809 70.2584 39.0191 69.982L39.019 69.9819L5.61899 12.9652L5.61849 12.9643C5.45554 12.6866 5.36862 12.3708 5.3665 12.0488C5.36437 11.7267 5.44711 11.4098 5.60638 11.1299C5.76566 10.85 5.99585 10.617 6.2738 10.4544C6.55171 10.2917 6.86757 10.2051 7.18957 10.2033C7.1896 10.2033 7.18963 10.2033 7.18966 10.2033L20.968 10.128L32.3483 29.1048L32.3485 29.1051L39.3485 40.7718Z" fill="white" stroke="black" stroke-width="3"/>
</svg>
